<svg xmlns="http://www.w3.org/2000/svg" version="1.1" xmlns:xlink="http://www.w3.org/1999/xlink" xmlns:svgjs="http://svgjs.dev/svgjs" viewBox="0 0 1422 800" opacity="0.76"><defs><linearGradient x1="50%" y1="0%" x2="50%" y2="100%" id="ccchaos-grad"><stop stop-color="hsl(206, 75%, 49%)" stop-opacity="1" offset="0%"></stop><stop stop-color="hsl(331, 90%, 56%)" stop-opacity="1" offset="100%"></stop></linearGradient></defs><g stroke-width="2" stroke="url(#ccchaos-grad)" fill="none" stroke-linecap="round"><path d="M722.47 -21.51Q730.34 -12.64 737.7 -3.69 744.69 5.19 751.47 13.87 758.21 22.2 765.1 30.05 772.33 37.34 780.06 43.99 788.47 49.97 797.71 55.3 807.88 60.05 819.09 64.29 831.37 68.16 844.74 71.82 859.15 75.44 874.52 79.2 890.75 83.27 907.65 87.83 925.06 93 942.74 98.89 960.46 105.57 977.97 113.03 995.04 121.25 1011.41 130.15 1026.87 139.59 1041.25 149.41 1054.37 159.41 1066.14 169.4 1076.49 179.14 1085.43 188.46 1092.99 197.15 1099.29 205.07 1085.74 218.51 1070.47 231.94 1055.72 245.38 1043.64 258.81 1036.02 272.24 1033.96 285.68 1037.77 299.11 1046.89 312.55 1059.98 325.98 1075.13 339.42 1090.11 352.85 1102.73 366.29 1111.14 379.72 1114.1 393.16 1111.18 406.59 1102.81 420.02 1090.22 433.46 1075.25 446.89 1060.09 460.33 1046.98 473.76 1037.82 487.2 1033.97 500.63 1035.98 514.06 1043.57 527.5 1055.61 540.93 1070.36 554.37 1085.63 567.8 1099.2 581.24 1109.07 594.67 1113.81 608.1 1112.7 621.54 1105.93 634.97 1088.96 639.56 1071.19 642.69 1052.87 644.55 1034.28 645.42 1015.71 645.63 997.42 645.55 979.65 645.58 962.65 646.14 946.58 647.58 931.61 650.24 917.82 654.36 905.28 660.11 893.98 667.56 883.89 676.67 874.9 687.32 866.9 699.26 859.73 712.19 853.19 725.73 847.08 739.45 841.18 752.93 835.29 765.73 829.19 777.47 822.7 787.82 815.65 796.54 807.89 803.46 799.32 808.55 789.87 811.87 779.51 813.61 768.24 814.04 756.11 813.51 743.17 812.44 729.54 811.31 719.39 797.63 708.43 784.93 696.7 773.57 684.25 763.82 671.16 755.87 657.54 749.77 643.51 745.47 629.2 742.83 614.75 741.58 600.29 741.39 585.95 741.87 571.84 742.58 558.06 743.09 544.69 742.97 531.78 741.83 519.36 739.37 507.44 735.36 496 729.66 485.01 722.23 474.41 713.16 464.12 702.62 454.08 690.86 444.19 678.21 434.36 665.05 424.51 651.79 414.57 638.84 404.47 626.56 394.15 615.31 383.59 605.35 372.75 596.87 361.65 589.96 350.3 584.64 350.79 571.87 350.87 559.1 350.53 546.33 349.82 533.57 348.84 520.8 347.73 508.03 346.67 495.26 345.8 482.49 345.25 469.72 345.1 456.95 345.38 444.19 346.04 431.42 346.99 418.65 348.09 405.88 349.17 393.11 350.08 380.34 350.68 367.57 350.89 354.8 350.68 342.03 350.07 329.27 349.16 316.5 348.08 303.73 346.98 290.96 346.04 278.19 345.38 265.42 345.1 252.65 345.25 239.88 345.8 227.11 346.68 214.34 347.74 201.58 348.84 188.81 349.82 176.04 362.01 169.05 374.24 162.97 386.44 157.73 398.56 153.25 410.5 149.38 422.21 145.94 433.64 142.74 444.74 139.56 455.48 136.21 465.86 132.49 475.88 128.25 485.57 123.35 494.99 117.72 504.21 111.31 513.3 104.15 522.38 96.28 531.53 87.82 540.88 78.88 550.53 69.62 560.57 60.23 571.11 50.87 582.21 41.72 593.92 32.92 606.27 24.6 619.27 16.86 632.87 9.74 647.04 3.27 661.68 -2.58 676.68 -7.88 691.91 -12.72 714.85 -19.36 722.47 -21.51" stroke-dasharray="3 8" transform="rotate(0, 711, 400)" opacity="0.05"></path><path d="M715.05 -8.89Q722.06 -0.22 728.86 8.53 735.6 17.24 742.43 25.75 749.52 33.93 757.04 41.67 765.12 48.87 773.9 55.46 783.51 61.42 794.01 66.73 805.48 71.46 817.93 75.66 831.35 79.46 845.69 83 860.86 86.42 876.73 89.91 893.16 93.61 909.96 97.71 926.94 102.34 943.89 107.6 960.57 113.59 976.78 120.35 992.32 127.86 1006.99 136.08 1020.63 144.91 1033.11 154.24 1044.35 163.89 1054.3 173.68 1062.94 183.42 1070.34 192.91 1076.58 201.96 1081.81 210.4 1067.82 223.4 1053.16 236.4 1039.86 249.4 1029.76 262.4 1024.23 275.4 1024.06 288.41 1029.25 301.41 1039.1 314.41 1052.25 327.41 1066.87 340.41 1080.97 353.41 1092.58 366.41 1100.11 379.41 1102.53 392.41 1099.49 405.42 1091.41 418.42 1079.42 431.42 1065.16 444.42 1050.6 457.42 1037.75 470.42 1028.39 483.42 1023.79 496.43 1024.61 509.43 1030.72 522.43 1041.28 535.43 1054.84 548.43 1069.52 561.43 1083.31 574.43 1094.29 587.44 1100.95 600.44 1102.38 613.44 1098.37 626.44 1083.03 629.58 1066.73 631.53 1049.69 632.53 1032.15 632.87 1014.34 632.89 996.52 632.95 978.93 633.41 961.79 634.62 945.3 636.88 929.63 640.43 914.94 645.46 901.3 652.05 888.79 660.22 877.41 669.87 867.15 680.84 857.93 692.87 849.66 705.66 842.21 718.84 835.42 732.02 829.11 744.82 823.11 756.85 817.21 767.79 811.24 777.36 805.02 785.35 790.86 795.46 774.73 800.81 765.33 801.17 755.09 800.68 744.05 799.71 732.23 798.69 720.92 785.49 708.89 773.19 696.22 762.11 682.99 752.53 669.32 744.59 655.33 738.37 641.16 733.85 626.93 730.91 612.77 729.33 598.78 728.82 585.09 729.05 571.76 729.64 558.86 730.17 546.45 730.28 534.53 729.58 523.11 727.78 512.17 724.63 501.67 719.95 491.54 713.69 481.73 705.84 472.15 696.51 462.73 685.89 453.37 674.24 443.99 661.86 434.53 649.12 424.91 636.37 415.08 623.98 405.01 612.29 394.68 601.59 384.07 592.12 373.2 584.03 362.09 577.41 362.44 565.04 362.32 552.67 361.73 540.31 360.77 527.94 359.57 515.57 358.28 503.2 357.1 490.83 356.17 478.46 355.64 466.09 355.56 453.72 355.97 441.36 356.79 428.99 357.91 416.62 359.18 404.25 360.43 391.88 361.48 379.51 362.19 367.14 362.45 354.78 362.24 342.41 361.58 330.04 360.57 317.67 359.33 305.3 358.05 292.93 356.9 280.57 356.04 268.2 355.59 255.83 355.6 243.46 356.09 231.09 356.97 218.72 358.13 206.36 359.42 193.99 360.64 181.62 372.53 175.68 384.5 170.57 396.48 166.2 408.41 162.43 420.21 159.1 431.83 156.04 443.2 153.06 454.27 149.95 465.01 146.53 475.38 142.66 485.38 138.19 495.02 133.04 504.32 127.16 513.34 120.53 522.14 113.19 530.8 105.21 539.4 96.71 548.06 87.82 556.87 78.7 565.93 69.5 575.35 60.4 585.22 51.55 595.62 43.07 606.6 35.09 618.21 27.68 630.46 20.89 643.34 14.71 656.82 9.13 670.82 4.08 685.27 -0.52 707.55 -6.85 715.05 -8.89" stroke-dasharray="7 8" transform="rotate(4.125, 711, 400)" opacity="0.08"></path><path d="M707.07 3.71Q713.79 12.18 720.59 20.75 727.6 29.26 734.96 37.6 742.81 45.64 751.27 53.26 760.45 60.37 770.42 66.91 781.25 72.83 792.96 78.13 805.56 82.84 819.01 87.03 833.24 90.78 848.17 94.22 863.67 97.49 879.6 100.74 895.78 104.13 912.04 107.82 928.19 111.94 944.03 116.62 959.37 121.95 974.04 127.99 987.88 134.77 1000.76 142.28 1012.55 150.44 1023.21 159.17 1032.67 168.34 1040.97 177.8 1048.13 187.37 1054.24 196.86 1059.43 206.1 1063.85 214.92 1049.94 227.47 1036.29 240.02 1024.68 252.58 1016.6 265.13 1013.12 277.68 1014.66 290.24 1021.05 302.79 1031.44 315.34 1044.5 327.9 1058.53 340.45 1071.71 353.01 1082.34 365.56 1089.03 378.11 1090.93 390.67 1087.78 403.22 1080 415.77 1068.59 428.33 1055.03 440.88 1041.08 453.43 1028.54 465.98 1019.04 478.54 1013.8 491.09 1013.52 503.64 1018.22 516.2 1027.3 528.75 1039.57 541.3 1053.46 553.86 1067.15 566.41 1078.88 578.96 1087.13 591.52 1090.83 604.07 1089.49 616.62 1075.82 618.58 1061.11 619.65 1045.52 620.09 1029.25 620.21 1012.49 620.31 995.46 620.74 978.38 621.8 961.47 623.77 944.92 626.9 928.93 631.35 913.64 637.23 899.19 644.58 885.69 653.36 873.19 663.42 861.72 674.59 851.27 686.59 841.8 699.14 833.25 711.88 825.49 724.46 818.42 736.54 811.87 747.8 805.71 757.94 799.75 766.75 793.84 774.05 781.31 783.21 767.59 788.01 759.75 788.31 751.23 787.86 741.98 786.99 731.99 786.07 719.66 773.34 706.77 761.44 693.43 750.66 679.76 741.24 665.87 733.34 651.9 727.04 637.95 722.32 624.15 719.09 610.6 717.19 597.38 716.36 584.57 716.32 572.22 716.74 560.36 717.24 549 717.49 538.14 717.14 527.74 715.89 517.76 713.49 508.15 709.75 498.83 704.57 489.74 697.89 480.78 689.78 471.89 680.35 462.97 669.78 453.97 658.34 444.81 646.31 435.45 634.01 425.84 621.77 415.97 609.92 405.83 598.75 395.42 588.52 384.75 579.45 373.87 571.66 374 559.67 373.62 547.68 372.77 535.7 371.56 523.71 370.15 511.72 368.71 499.73 367.45 487.75 366.51 475.76 366.02 463.77 366.05 451.78 366.59 439.8 367.57 427.81 368.87 415.82 370.31 403.83 371.71 391.85 372.89 379.86 373.69 367.87 374.01 355.88 373.82 343.9 373.13 331.91 372.03 319.92 370.67 307.93 369.22 295.95 367.87 283.96 366.8 271.97 366.14 259.98 365.98 248 366.34 236.01 367.17 224.02 368.37 212.03 369.78 200.05 371.22 188.06 382.8 183.12 394.49 178.89 406.22 175.25 417.95 172.06 429.6 169.14 441.12 166.32 452.44 163.43 463.49 160.28 474.25 156.72 484.65 152.63 494.7 147.9 504.36 142.48 513.66 136.34 522.62 129.5 531.28 122.01 539.69 113.96 547.94 105.47 556.1 96.67 564.27 87.7 572.54 78.73 581.02 69.91 589.8 61.37 598.98 53.23 608.65 45.59 618.85 38.52 629.66 32.04 641.09 26.17 653.15 20.86 665.83 16.05 679.1 11.67 699.97 5.65 707.07 3.71" stroke-dasharray="10 10" transform="rotate(8.25, 711, 400)" opacity="0.11"></path><path d="M699.63 16.32Q706.58 24.6 713.85 32.96 721.55 41.28 729.78 49.44 738.64 57.32 748.22 64.82 758.55 71.84 769.67 78.31 781.59 84.2 794.3 89.49 807.73 94.2 821.81 98.38 836.46 102.11 851.54 105.49 866.93 108.64 882.46 111.7 897.97 114.82 913.3 118.14 928.27 121.8 942.72 125.94 956.51 130.64 969.49 136 981.57 142.05 992.64 148.8 1002.66 156.24 1011.61 164.3 1019.49 172.88 1026.35 181.86 1032.28 191.1 1037.37 200.44 1041.78 209.7 1045.68 218.71 1032.32 230.81 1020 242.9 1010.24 254.99 1004.21 267.09 1002.65 279.18 1005.74 291.28 1013.11 303.37 1023.87 315.46 1036.71 327.56 1050.06 339.65 1062.32 351.75 1071.99 363.84 1077.89 375.94 1079.32 388.03 1076.09 400.12 1068.6 412.22 1057.76 424.31 1044.88 436.41 1031.54 448.5 1019.34 460.6 1009.77 472.69 1003.99 484.78 1002.7 496.88 1006.07 508.97 1013.67 521.07 1024.59 533.16 1037.51 545.26 1050.84 557.35 1062.99 569.45 1072.46 581.54 1072.68 600.23 1054.17 607.32 1040.14 607.51 1025.3 607.68 1009.8 608.11 993.83 609.09 977.58 610.87 961.24 613.68 945 617.69 929.04 623 913.53 629.67 898.61 637.68 884.41 646.93 871.03 657.28 858.54 668.52 846.97 680.38 836.34 692.58 826.62 704.81 817.75 716.75 809.68 728.1 802.29 738.57 795.47 747.93 783.08 761.92 771.15 771.58 758.59 774.72 744.92 775.04 737.2 774.26 728.86 773.46 715.81 761.2 702.42 749.69 688.82 739.21 675.11 729.98 661.41 722.14 647.84 715.76 634.49 710.87 621.45 707.39 608.79 705.17 596.58 704.03 584.84 703.7 573.6 703.91 562.85 704.33 552.59 704.65 542.77 704.55 533.36 703.75 524.28 701.99 515.48 699.09 506.88 694.89 498.39 689.33 489.96 682.4 481.49 674.17 472.92 664.76 464.2 654.36 455.28 643.21 446.11 631.57 436.67 619.73 426.96 607.98 416.98 596.62 406.73 585.92 396.25 576.09 385.56 567.32 385.43 555.7 384.75 544.07 383.62 532.45 382.17 520.83 380.58 509.2 379.04 497.58 377.73 485.95 376.82 474.33 376.42 462.71 376.58 451.08 377.27 439.46 378.41 427.84 379.87 416.21 381.46 404.59 383 392.97 384.29 381.34 385.19 369.72 385.57 358.1 385.4 346.47 384.7 334.85 383.54 323.22 382.08 311.6 380.48 299.98 378.95 288.35 377.66 276.73 376.78 265.11 376.42 253.48 376.6 241.86 377.32 230.24 378.49 218.61 379.96 206.99 381.55 195.37 392.81 191.32 404.19 187.85 415.66 184.8 427.16 182.04 438.63 179.38 450.02 176.68 461.26 173.76 472.3 170.47 483.08 166.7 493.54 162.34 503.67 157.33 513.43 151.64 522.81 145.26 531.82 138.23 540.47 130.63 548.81 122.54 556.88 114.09 564.75 105.41 572.5 96.64 580.2 87.93 587.96 79.4 595.87 71.2 604.02 63.41 612.5 56.12 621.41 49.38 630.8 43.23 640.75 37.65 651.3 32.61 662.47 28.05 674.26 23.88 693.15 18.17 699.63 16.32" stroke-dasharray="3 3" transform="rotate(12.375, 711, 400)" opacity="0.14"></path><path d="M693.75 28.95Q701.35 37.02 709.43 45.17 718.07 53.29 727.34 61.27 737.29 68.99 747.96 76.35 759.33 83.27 771.41 89.68 784.16 95.53 797.51 100.81 811.38 105.53 825.69 109.71 840.3 113.43 855.1 116.77 869.93 119.83 884.66 122.74 899.13 125.64 913.21 128.65 926.75 131.91 939.63 135.55 951.74 139.68 962.99 144.38 973.32 149.71 982.68 155.72 991.07 162.4 998.5 169.72 1005.02 177.62 1010.71 186.02 1015.67 194.78 1020.03 203.79 1023.93 212.89 1027.56 221.92 1015.15 233.55 1004.43 245.17 996.61 256.8 992.58 268.43 992.8 280.06 997.24 291.69 1005.4 303.32 1016.35 314.94 1028.85 326.57 1041.48 338.2 1052.81 349.83 1061.54 361.46 1066.7 373.09 1067.68 384.72 1064.39 396.34 1057.2 407.97 1046.91 419.6 1034.71 431.23 1021.96 442.86 1010.14 454.49 1000.56 466.12 994.33 477.75 992.15 489.37 994.26 501 1000.43 512.63 1009.96 524.26 1021.76 535.89 1034.5 547.52 1046.72 559.15 1057.05 570.78 1060.79 588.49 1045.82 594.82 1033.39 595.05 1020.07 595.52 1006 596.47 991.3 598.14 976.13 600.74 960.67 604.41 945.07 609.28 929.5 615.39 914.13 622.75 899.1 631.29 884.56 640.89 870.61 651.39 857.37 662.58 844.9 674.19 833.24 685.97 822.43 697.62 812.45 708.88 803.29 719.47 794.87 729.16 787.14 737.75 773.54 750.46 761.05 759.17 749.16 761.96 736.91 762.23 730.3 761.54 723.26 760.83 709.92 749.03 696.49 737.93 683.07 727.76 669.76 718.73 656.66 710.96 643.86 704.55 631.42 699.5 619.41 695.78 607.87 693.28 596.81 691.82 586.24 691.2 576.17 691.18 566.55 691.46 557.35 691.78 540.12 691.02 523.61 688 515.6 684.69 507.61 680.16 499.57 674.36 491.43 667.31 483.12 659.08 474.6 649.81 465.83 639.66 456.8 628.85 447.48 617.63 437.89 606.25 428.03 594.98 417.93 584.07 407.61 573.77 397.12 564.27 396.66 553 395.68 541.72 394.27 530.45 392.61 519.18 390.87 507.9 389.27 496.63 387.97 485.35 387.13 474.08 386.84 462.81 387.14 451.53 387.99 440.26 389.29 428.99 390.9 417.71 392.64 406.44 394.3 395.16 395.7 383.89 396.68 372.62 397.12 361.34 396.99 350.07 396.29 338.8 395.1 327.52 393.56 316.25 391.84 304.98 390.14 293.7 388.65 282.43 387.54 271.15 386.93 259.88 386.9 248.61 387.45 237.33 388.52 226.06 389.97 214.79 391.66 203.51 402.56 200.23 413.6 197.35 424.77 194.74 436.01 192.25 447.27 189.71 458.5 186.99 469.63 183.94 480.62 180.45 491.4 176.41 501.93 171.75 512.15 166.45 522.03 160.49 531.55 153.89 540.69 146.72 549.45 139.04 557.86 130.96 565.93 122.59 573.7 114.07 581.25 105.53 588.63 97.1 595.91 88.89 603.19 81.03 610.55 73.6 618.09 66.66 625.89 60.27 634.03 54.44 642.61 49.15 651.68 44.38 661.3 40.06 671.5 36.11 688.03 30.7 693.75 28.95" stroke-dasharray="3 1" transform="rotate(16.5, 711, 400)" opacity="0.17"></path><path d="M690.25 41.57Q698.74 49.42 707.8 57.36 717.46 65.28 727.76 73.06 738.7 80.62 750.26 87.84 762.43 94.66 775.14 101 788.33 106.81 801.92 112.08 815.81 116.8 829.89 121 844.03 124.72 858.12 128.05 872.03 131.06 885.62 133.87 898.78 136.58 911.38 139.34 923.34 142.26 934.56 145.46 944.97 149.06 954.53 153.15 963.21 157.8 971.02 163.07 977.97 168.98 984.12 175.53 989.54 182.69 994.33 190.4 998.6 198.57 1002.49 207.09 1006.14 215.85 1009.73 224.7 998.62 235.86 989.67 247.02 983.83 258.18 981.71 269.35 983.54 280.51 989.13 291.67 997.87 302.83 1008.86 313.99 1020.92 325.15 1032.77 336.31 1043.17 347.47 1051 358.63 1055.45 369.79 1056.03 380.95 1052.7 392.11 1045.79 403.27 1036.05 414.44 1024.5 425.6 1012.37 436.76 1000.93 447.92 991.42 459.08 984.82 470.24 981.84 481.4 982.8 492.56 987.59 503.72 995.71 514.88 1006.29 526.04 1018.22 537.21 1030.23 548.37 1041.05 559.53 1047.71 576.42 1036.01 582.45 1025.17 582.96 1013.42 583.93 1000.86 585.55 987.57 588.01 973.69 591.45 959.35 595.98 944.67 601.65 929.82 608.47 914.94 616.4 900.16 625.34 885.64 635.17 871.49 645.69 857.83 656.7 844.74 667.97 832.32 679.24 820.6 690.27 809.63 700.81 799.41 710.64 789.94 719.56 781.19 727.41 765.89 738.91 752.12 746.73 739.97 749.2 728.15 749.43 722.16 748.83 715.97 748.21 702.84 736.88 689.83 726.18 677.04 716.32 664.53 707.49 652.38 699.82 640.65 693.39 629.37 688.23 618.56 684.29 608.25 681.51 598.42 679.75 589.05 678.84 580.11 678.55 563.46 678.87 547.62 678.88 532.44 676.04 517.26 670.4 509.51 665.65 501.57 659.74 493.42 652.69 485.02 644.57 476.35 635.51 467.4 625.68 458.17 615.26 448.66 604.48 438.91 593.56 428.94 582.74 418.78 572.26 408.48 562.31 407.68 551.37 406.38 540.44 404.72 529.5 402.88 518.57 401.05 507.63 399.43 496.7 398.18 485.76 397.45 474.83 397.3 463.9 397.76 452.96 398.77 442.03 400.23 431.09 401.98 420.16 403.84 409.22 405.61 398.29 407.1 387.36 408.16 376.42 408.67 365.49 408.58 354.55 407.9 343.62 406.7 332.68 405.11 321.75 403.29 310.82 401.44 299.88 399.76 288.95 398.42 278.01 397.56 267.08 397.28 256.15 397.61 245.21 398.5 234.28 399.87 223.34 401.57 212.41 412.08 209.72 422.75 207.28 433.57 204.94 444.51 202.56 455.51 200.01 466.53 197.16 477.51 193.9 488.41 190.13 499.16 185.78 509.71 180.82 520.01 175.23 530.02 169.03 539.7 162.25 549.02 154.96 557.97 147.25 566.54 139.22 574.75 130.98 582.61 122.66 590.15 114.37 597.42 106.25 604.49 98.38 611.41 90.88 618.26 83.81 625.13 77.24 632.09 71.19 639.24 65.67 646.65 60.68 654.41 56.17 662.6 52.08 671.27 48.35 685.36 43.22 690.25 41.57" stroke-dasharray="9 9" transform="rotate(20.625, 711, 400)" opacity="0.20"></path><path d="M689.62 54.18Q699.07 61.83 709.08 69.55 719.66 77.25 730.8 84.84 742.47 92.22 754.62 99.3 767.21 106 780.15 112.26 793.36 118.04 806.75 123.29 820.22 128.02 833.65 132.24 846.94 135.98 859.98 139.31 872.65 142.3 884.86 145.04 896.52 147.63 907.53 150.18 917.85 152.82 927.42 155.64 943.81 162.55 957.87 170.89 968.5 182.11 977.53 195.13 981.38 202.6 985.05 210.52 988.68 218.78 992.42 227.27 982.88 237.96 975.81 248.66 971.92 259.35 971.57 270.05 974.82 280.74 981.34 291.44 990.48 302.13 1001.35 312.83 1012.87 323.52 1023.92 334.22 1033.39 344.91 1040.36 355.61 1044.14 366.3 1044.36 377 1041 387.69 1034.39 398.39 1025.17 409.08 1014.26 419.78 1002.73 430.47 991.73 441.17 982.32 451.86 975.45 462.56 971.78 473.26 971.68 483.95 975.16 494.65 981.88 505.34 991.16 516.04 1002.11 526.73 1013.64 537.43 1024.61 548.12 1024.51 567.92 1005.25 573.11 994.22 575.5 982.43 578.79 969.96 583.07 956.91 588.4 943.4 594.78 929.54 602.2 915.45 610.56 901.27 619.78 887.12 629.68 873.13 640.1 859.4 650.84 846.05 661.67 833.17 672.37 820.83 682.73 809.09 692.54 798 701.6 787.57 709.77 777.83 716.91 768.75 722.94 760.3 727.83 745.37 733.75 731.82 736.76 719.74 736.53 708 735.59 695.55 724.72 683.4 714.42 671.61 704.88 660.22 696.28 649.28 688.72 638.81 682.29 628.82 677.03 619.31 672.91 601.81 668.25 585.47 666.06 570.54 666.12 556.08 666.24 541.76 664.31 527.17 660.07 519.58 656.29 511.76 651.45 503.69 645.53 495.34 638.58 486.71 630.66 477.81 621.9 468.63 612.43 459.2 602.43 449.54 592.1 439.7 581.64 429.7 571.26 419.59 561.16 418.43 550.56 416.84 539.96 414.96 529.36 412.99 518.76 411.12 508.15 409.53 497.55 408.38 486.95 407.79 476.35 407.8 465.75 408.43 455.15 409.61 444.55 411.21 433.94 413.1 423.34 415.07 412.74 416.93 402.14 418.51 391.54 419.64 380.94 420.21 370.34 420.18 359.74 419.53 349.13 418.34 338.53 416.72 327.93 414.83 317.33 412.86 306.73 411 296.13 409.44 285.53 408.32 274.93 407.77 264.33 407.83 253.72 408.49 243.12 415.55 226.09 431.67 217.46 442.11 215.24 452.68 212.84 463.37 210.16 474.12 207.09 484.89 203.54 495.64 199.45 506.3 194.79 516.83 189.52 527.17 183.67 537.27 177.25 547.1 170.33 556.62 162.98 565.79 155.28 574.6 147.34 583.03 139.27 591.1 131.19 598.8 123.19 606.17 115.39 613.24 107.88 620.06 100.75 626.69 94.05 633.18 87.84 646.12 77.17 659.37 67.97 681.75 57.45 689.62 54.18" stroke-dasharray="8 2" transform="rotate(24.75, 711, 400)" opacity="0.23"></path><path d="M691.93 66.8Q702.22 74.22 713 81.72 724.24 89.21 735.91 96.59 747.94 103.79 760.29 110.72 772.87 117.3 785.61 123.48 798.41 129.2 811.18 134.43 823.84 139.17 836.27 143.41 848.39 147.19 860.12 150.54 871.36 153.53 882.05 156.23 892.12 158.74 901.54 161.14 917.93 166.17 932.21 171.84 943.29 179.44 952.79 188.61 960.58 200.61 967.99 214.23 971.79 221.86 975.85 229.82 968.05 240.06 962.9 250.29 960.86 260.53 962.13 270.76 966.59 281 973.82 291.24 983.18 301.47 993.8 311.71 1004.71 321.94 1014.91 332.18 1023.48 342.41 1029.63 352.65 1032.79 362.89 1032.68 373.12 1029.31 383.36 1022.98 393.59 1014.28 403.83 1003.99 414.06 993.07 424.3 982.51 434.54 973.27 444.77 966.2 455.01 961.94 465.24 960.89 475.48 963.14 485.72 968.49 495.95 976.44 506.19 986.28 516.42 997.09 526.66 1007.89 536.9 1011.37 556.71 995.53 563.2 986 566.41 975.72 570.53 964.72 575.6 953.08 581.64 940.89 588.63 928.22 596.51 915.19 605.18 901.89 614.52 888.44 624.37 874.95 634.57 861.52 644.93 848.27 655.25 835.29 665.33 822.66 674.99 810.46 684.05 798.75 692.36 787.59 699.79 777 706.25 767.02 711.67 757.64 716.04 740.9 721.3 725.74 723.96 712.67 723.77 700.43 722.98 689.07 712.56 678.11 702.66 667.59 693.45 657.54 685.07 647.95 677.65 638.82 671.25 630.14 665.92 621.88 661.64 606.61 656.47 592.19 653.72 578.61 653.44 565.18 653.53 551.41 652.3 537.13 649.24 529.61 646.31 521.82 642.45 513.76 637.61 505.42 631.79 496.79 625.02 487.91 617.38 478.77 608.96 469.41 599.91 459.86 590.36 450.15 580.49 440.32 570.49 430.41 560.53 428.91 550.26 427.06 539.99 425.01 529.72 422.97 519.45 421.11 509.18 419.6 498.91 418.59 488.64 418.16 478.37 418.36 468.1 419.17 457.83 420.5 447.56 422.25 437.28 424.25 427.01 426.32 416.74 428.27 406.47 429.91 396.2 431.11 385.93 431.75 375.66 431.77 365.39 431.17 355.12 430.01 344.85 428.39 334.58 426.45 324.31 424.39 314.04 422.38 303.77 420.61 293.5 419.24 283.23 418.4 272.96 418.16 262.69 418.54 252.42 425.06 236 440.42 227.75 450.42 225.48 460.59 222.94 470.9 220.02 481.32 216.66 491.82 212.78 502.34 208.36 512.84 203.37 523.27 197.82 533.58 191.73 543.73 185.15 553.66 178.13 563.34 170.77 572.73 163.14 581.78 155.34 590.49 147.48 598.84 139.66 606.82 131.98 614.43 124.53 621.69 117.4 628.64 110.64 641.61 98.71 654.02 88.21 666.15 79.97 678.55 72.84 688.51 68.27 691.93 66.8" stroke-dasharray="0 4" transform="rotate(28.875, 711, 400)" opacity="0.26"></path><path d="M696.87 79.42Q707.74 86.61 718.96 93.88 730.5 101.15 742.29 108.33 754.27 115.34 766.38 122.11 778.53 128.56 790.65 134.64 802.65 140.31 814.45 145.52 825.98 150.25 837.15 154.52 847.89 158.33 858.15 161.72 867.87 164.73 877.01 167.43 893.12 172.16 907.34 176.71 925.62 186.8 936.54 195.98 944 206.39 951.57 218.41 954.96 233.83 950.95 252.16 950.64 261.95 953.33 271.73 958.77 281.52 966.52 291.3 975.92 301.09 986.17 310.88 996.4 320.66 1005.75 330.45 1013.44 340.23 1018.8 350.02 1021.39 359.8 1020.98 369.59 1017.61 379.38 1011.58 389.16 1003.37 398.95 993.7 408.73 983.37 418.52 973.27 428.31 964.24 438.09 957.06 447.88 952.32 457.66 950.43 467.45 951.54 477.24 955.58 487.02 962.18 496.81 970.8 506.59 980.71 516.38 991.06 526.17 997.17 546.29 984.31 554.32 976.2 558.33 967.37 563.23 957.84 569.01 947.66 575.65 936.87 583.11 925.53 591.31 913.73 600.14 901.55 609.47 889.07 619.15 876.38 629.03 863.59 638.92 850.79 648.66 838.06 658.08 825.5 667.02 813.19 675.33 801.2 682.9 789.6 689.62 778.44 695.42 767.76 700.27 757.59 704.16 747.96 707.11 738.86 709.2 722.46 710.9 707.5 711.09 700.75 710.72 694.33 710.36 684.31 700.39 674.75 690.89 665.64 682.01 656.98 673.88 648.75 666.61 640.92 660.26 626.47 650.94 612.85 644.43 600.08 641.79 587.46 640.74 574.58 640.72 561.24 640.28 546.81 637.59 531.58 632.77 523.48 628.91 515.11 624.16 506.48 618.51 497.6 612.01 488.51 604.71 479.23 596.69 469.79 588.08 460.24 579.01 450.6 569.63 440.91 560.08 439.11 550.15 437.05 540.21 434.89 530.27 432.83 520.33 431.04 510.4 429.67 500.46 428.83 490.52 428.59 480.58 428.99 470.65 429.97 460.71 431.47 450.77 433.35 440.83 435.45 430.9 437.6 420.96 439.61 411.02 441.32 401.08 442.57 391.15 443.27 381.21 443.36 371.27 442.82 361.33 441.71 351.4 440.11 341.46 438.16 331.52 436.03 321.59 433.9 311.65 431.94 301.71 430.33 291.77 429.2 281.84 428.64 271.9 428.7 261.96 434.56 246.07 449.07 237.95 458.59 235.51 468.3 232.72 478.18 229.5 488.2 225.79 498.34 221.57 508.55 216.81 518.81 211.52 529.06 205.72 539.26 199.44 549.37 192.74 559.33 185.69 569.11 178.36 578.65 170.85 587.93 163.24 596.91 155.63 605.56 148.12 613.86 140.78 621.81 133.7 629.39 126.94 636.62 120.57 649.94 109.37 662.42 99.52 673.97 91.8 685.31 85.1 693.95 80.8 696.87 79.42" stroke-dasharray="1 6" transform="rotate(33, 711, 400)" opacity="0.29"></path><path d="M703.76 92.04Q714.83 99 726.09 106.04 737.5 113.07 748.99 120.04 760.51 126.85 771.97 133.45 783.3 139.77 794.45 145.75 805.34 151.34 815.91 156.52 826.1 161.26 835.85 165.55 845.13 169.4 853.88 172.83 869.48 178.47 883.39 183.3 901.76 190.98 912.86 197.21 926.09 210.89 936 223.18 941 237.19 939.97 254.48 941.22 263.83 945.1 273.17 951.32 282.52 959.38 291.87 968.66 301.22 978.43 310.57 987.94 319.92 996.44 329.26 1003.26 338.61 1007.88 347.96 1009.94 357.31 1009.27 366.66 1005.92 376 1000.17 385.35 992.45 394.7 983.37 404.05 973.63 413.4 964.01 422.74 955.24 432.09 948.01 441.44 942.88 450.79 940.27 460.13 940.35 469.48 943.14 478.83 948.42 488.18 955.77 497.53 964.61 506.87 974.27 516.22 982.07 536.85 971.71 546.51 964.88 551.29 957.4 556.88 949.27 563.25 940.52 570.37 931.15 578.16 921.21 586.53 910.76 595.37 899.84 604.56 888.53 613.95 876.89 623.4 865.01 632.76 852.96 641.87 840.83 650.6 828.69 658.81 816.63 666.38 804.72 673.22 793.02 679.26 781.61 684.44 770.54 688.75 759.85 692.19 749.58 694.8 739.76 696.63 721.76 698.14 705.16 698.33 697.64 698.03 690.52 697.74 681.97 688.22 673.85 679.12 666.14 670.58 658.8 662.7 651.82 655.6 645.14 649.32 632.59 639.85 620.52 632.96 608.71 629.79 596.74 628.25 584.09 628.07 570.8 627.81 556.24 625.97 540.87 622.45 532.71 619.48 524.3 615.71 515.66 611.13 506.81 605.73 497.78 599.55 488.61 592.64 479.31 585.07 469.94 576.95 460.52 568.37 451.09 559.48 449.04 549.88 446.83 540.29 444.63 530.69 442.62 521.09 440.95 511.49 439.75 501.89 439.11 492.29 439.09 482.69 439.69 473.1 440.86 463.5 442.5 453.9 444.5 444.3 446.69 434.7 448.9 425.1 450.97 415.5 452.72 405.91 454.03 396.31 454.79 386.71 454.94 377.11 454.48 367.51 453.43 357.91 451.87 348.31 449.94 338.71 447.78 329.12 445.55 319.52 443.44 309.92 441.61 300.32 440.19 290.72 439.31 281.12 439.03 271.52 444.13 256.08 457.69 247.89 466.7 245.18 475.9 242.06 485.29 238.48 494.84 234.41 504.55 229.84 514.38 224.77 524.3 219.21 534.27 213.2 544.26 206.79 554.23 200.03 564.12 193 573.9 185.77 583.52 178.43 592.95 171.06 602.14 163.74 611.06 156.55 619.68 149.58 627.98 142.88 635.94 136.52 643.54 130.54 657.54 120.06 670.54 110.87 682.17 103.64 693.2 97.37 701.13 93.34 703.76 92.04" stroke-dasharray="8 4" transform="rotate(37.125, 711, 400)" opacity="0.32"></path><path d="M711.66 104.66Q722.5 111.39 733.38 118.19 744.26 124.99 755.05 131.73 765.72 138.35 776.19 144.77 786.42 150.94 796.35 156.8 805.93 162.32 815.11 167.45 823.87 172.18 832.17 176.49 847.06 183.67 860.46 189.73 878.59 197.38 889.7 202.42 902.88 211.46 912.54 219.66 921.68 228.91 932.06 239.6 929.76 248.52 929.92 257.44 932.53 266.37 937.38 275.29 944.15 284.21 952.33 293.14 961.35 302.06 970.57 310.98 979.31 319.91 986.95 328.83 992.95 337.75 996.87 346.68 998.44 355.6 997.54 364.52 994.23 373.45 988.76 382.37 981.51 391.29 973.01 400.22 963.87 409.14 954.73 418.06 946.25 426.98 939.05 435.91 933.63 444.83 930.39 453.75 929.56 462.68 931.2 471.6 935.18 480.52 941.23 489.44 948.91 498.37 957.68 507.29 966.27 528.53 957.89 539.79 952.17 545.24 945.9 551.4 939.06 558.23 931.65 565.67 923.66 573.64 915.11 582.04 906.04 590.76 896.47 599.69 886.45 608.69 876.03 617.63 865.27 626.39 854.22 634.83 842.97 642.85 831.57 650.32 820.09 657.17 808.6 663.31 797.17 668.7 785.87 673.31 774.74 677.11 763.86 680.14 753.26 682.43 742.98 684.04 733.07 685.05 723.55 685.56 705.92 685.51 689.54 685.12 682.41 676.04 675.62 667.34 669.16 659.13 662.97 651.52 651.32 638.81 640.08 628.44 629.04 621.99 617.84 617.67 605.96 616.06 593.47 615.43 579.76 615.13 565.24 614.25 549.42 611.26 532.89 606.45 524.26 602.84 515.47 598.5 506.54 593.41 497.5 587.61 488.39 581.14 479.24 574.05 470.07 566.44 460.93 558.39 458.7 549.14 456.42 539.89 454.25 530.64 452.35 521.39 450.85 512.14 449.86 502.89 449.46 493.64 449.67 484.39 450.47 475.14 451.81 465.89 453.59 456.64 455.69 447.38 457.95 438.13 460.22 428.88 462.32 419.63 464.12 410.38 465.47 401.13 466.29 391.88 466.51 382.63 466.12 373.38 465.15 364.13 463.67 354.88 461.78 345.63 459.61 336.38 457.33 327.13 455.1 317.88 453.07 308.63 451.4 299.38 450.19 290.12 449.55 280.87 453.82 265.84 466.38 257.41 474.83 254.35 483.48 250.86 492.33 246.91 501.36 242.48 510.57 237.59 519.93 232.24 529.43 226.46 539.02 220.31 548.69 213.82 558.4 207.07 568.1 200.12 577.77 193.05 587.35 185.92 596.82 178.83 606.12 171.83 615.23 165.01 624.1 158.42 632.71 152.12 641.03 146.16 649.04 140.57 663.88 130.81 677.71 122.25 689.92 115.52 701.28 109.66 709.11 105.88 711.66 104.66" stroke-dasharray="4 2" transform="rotate(41.25, 711, 400)" opacity="0.35"></path><path d="M719.45 117.28Q739.8 130.32 759.56 143.4 778.35 156.04 795.86 167.8 811.82 178.3 826.08 187.33 838.61 194.79 849.47 200.78 858.88 205.55 867.16 209.5 874.73 213.13 882.08 216.99 889.75 221.62 898.26 227.49 908.12 234.95 919.76 244.18 920.76 261.21 930.08 278.23 945.32 295.26 962.53 312.29 977.29 329.31 985.77 346.34 985.8 363.36 977.36 380.39 962.63 397.42 945.41 414.44 930.15 431.47 920.79 448.49 919.74 465.52 927.27 482.55 941.44 499.57 958.59 516.6 951.46 524.05 943.08 534.13 933.05 546.72 921.13 561.47 907.18 577.75 891.23 594.78 873.43 611.66 854.05 627.53 833.47 641.57 812.11 653.19 790.42 662.03 768.88 668.03 747.91 671.43 727.85 672.78 709 672.83 691.52 672.5 679.94 655.56 669.15 640.36 658.81 627.57 648.54 617.58 638.01 610.47 626.92 606.02 615.03 603.74 602.17 602.89 588.28 602.61 573.36 602 557.49 600.19 540.83 596.46 523.56 590.33 505.93 581.55 488.16 570.17 470.49 556.54 465.88 538.76 462.08 520.97 460.06 503.19 460.34 485.41 462.86 467.62 466.95 449.84 471.57 432.06 475.52 414.27 477.79 396.49 477.78 378.71 475.5 360.92 471.54 343.14 466.92 325.35 462.84 307.57 460.34 289.78 460.07 272 475.25 266.34 491.18 259.02 507.9 249.94 525.37 239.19 543.48 227.04 562.05 213.87 580.87 200.2 599.64 186.56 618.09 173.48 635.92 161.41 652.87 150.65 668.72 141.4 683.31 133.66 696.59 127.27 714.02 119.61 719.45 117.28" stroke-dasharray="9 8" transform="rotate(45.375, 711, 400)" opacity="0.38"></path><path d="M726.08 129.9Q744.42 142.45 761.81 155.05 777.99 167.27 792.78 178.72 806.06 189.06 817.82 198.05 828.15 205.59 837.24 211.71 852.73 220.3 867.64 227.4 875.86 231.25 885.2 236.01 896.03 242.06 908.66 249.65 912.4 265.89 923.11 282.12 938.28 298.36 954.32 314.59 967.45 330.83 974.59 347.06 974.05 363.29 965.95 379.53 952.21 395.76 936.06 411.99 921.31 428.23 911.44 444.46 908.76 460.69 913.91 476.93 925.68 493.16 941.3 509.39 934.81 518.26 927.53 529.45 919.08 542.72 909.13 557.63 897.49 573.55 884.06 589.74 868.87 605.45 852.06 619.93 833.85 632.55 814.54 642.85 794.5 650.62 774.09 655.85 753.72 658.81 733.74 660 714.48 660.09 696.18 659.88 686.33 643.77 676.78 629.21 667.2 616.77 657.29 606.81 646.79 599.46 635.49 594.58 623.26 591.79 610.02 590.51 595.77 590.04 580.61 589.6 564.65 588.42 548.07 585.81 531.08 581.26 513.9 574.41 496.74 565.17 479.78 553.68 475.26 536.64 471.85 519.6 470.35 502.55 471.13 485.51 473.99 468.47 478.27 451.43 482.95 434.39 486.93 417.35 489.27 400.31 489.43 383.27 487.36 366.23 483.56 349.18 478.91 332.14 474.51 315.1 471.41 298.06 470.32 281.02 484.36 274.56 499.1 266.48 514.58 256.79 530.84 245.67 547.81 233.43 565.37 220.47 583.37 207.26 601.59 194.29 619.77 182 637.65 170.75 654.96 160.79 671.46 152.25 686.93 145.1 701.23 139.19 720.18 132.07 726.08 129.9" stroke-dasharray="2 7" transform="rotate(49.5, 711, 400)" opacity="0.41"></path><path d="M730.63 142.51Q746.57 154.56 761.38 166.67 774.93 178.47 787.17 189.59 798.09 199.73 807.79 208.66 816.45 216.26 824.31 222.52 838.96 231.26 854.26 238.07 863.22 241.33 873.46 245.18 885.23 250 898.72 256.09 904.74 271.56 916.39 287.03 931.16 302.49 945.9 317.96 957.44 333.43 963.33 348.89 962.29 364.36 954.55 379.83 941.76 395.3 926.68 410.76 912.51 426.23 902.31 441.7 898.24 457.16 901.19 472.63 910.52 488.09 924.24 503.56 918.07 513.62 911.54 525.63 904.25 539.25 895.89 554.01 886.2 569.31 875.03 584.5 862.3 598.92 848.02 612 832.31 623.23 815.34 632.3 797.36 639.07 778.65 643.6 759.54 646.17 740.33 647.23 721.36 647.37 702.89 647.27 694.07 631.99 685.11 618.06 675.73 606 665.71 596.14 654.89 588.61 643.15 583.34 630.45 580.05 616.79 578.32 602.24 577.56 586.92 577.12 571 576.34 554.65 574.59 538.07 571.35 521.47 566.22 505.02 558.98 488.88 549.61 484.6 533.34 481.69 517.07 480.77 500.8 482.04 484.53 485.22 468.26 489.64 451.98 494.34 435.71 498.33 419.44 500.75 403.17 501.07 386.89 499.24 370.62 495.63 354.35 491.04 338.08 486.43 321.8 482.8 305.53 480.92 289.26 493.82 281.99 507.34 273.21 521.56 263.04 536.52 251.7 552.22 239.53 568.6 226.92 585.55 214.29 602.92 202.05 620.51 190.58 638.09 180.17 655.42 171 672.25 163.16 688.37 156.59 703.56 151.13 724.16 144.53 730.63 142.51" stroke-dasharray="8 7" transform="rotate(53.625, 711, 400)" opacity="0.44"></path><path d="M732.47 155.13Q745.88 166.66 758.18 178.27 769.32 189.62 779.36 200.39 788.38 210.31 796.56 219.15 804.1 226.79 811.27 233.18 825.93 242.17 842.2 248.92 851.99 251.78 863.1 254.93 875.7 258.73 889.87 263.5 897.67 278.22 909.8 292.95 923.91 307.67 937.25 322.39 947.26 337.11 951.98 351.83 950.52 366.56 943.14 381.28 931.29 396 917.24 410.72 903.74 425.44 893.37 440.16 888.17 454.88 889.12 469.61 896.05 484.33 907.62 499.05 901.51 510.01 895.39 522.5 888.89 536.14 881.72 550.46 873.6 564.92 864.33 578.97 853.77 592.06 841.86 603.73 828.61 613.63 814.08 621.54 798.41 627.39 781.79 631.3 764.45 633.52 746.65 634.47 728.65 634.65 710.71 634.65 702.25 620.19 693.28 606.92 683.64 595.27 673.18 585.55 661.82 577.9 649.54 572.3 636.36 568.56 622.34 566.35 607.6 565.23 592.29 564.65 576.56 564.07 560.61 562.92 544.6 560.71 528.71 557.02 513.08 551.58 497.84 544.24 493.97 528.76 491.64 513.29 491.33 497.81 493.07 482.33 496.54 466.86 501.06 451.38 505.77 435.9 509.74 420.42 512.21 404.94 512.7 389.47 511.11 373.99 507.76 358.51 503.29 343.03 498.57 327.55 494.51 312.08 491.89 296.6 503.7 288.57 516.02 279.22 528.96 268.73 542.59 257.34 556.93 245.4 571.98 233.26 587.69 221.3 603.95 209.86 620.62 199.25 637.54 189.68 654.5 181.29 671.28 174.12 687.67 168.11 703.45 163.1 725.46 157 732.47 155.13" stroke-dasharray="0 8" transform="rotate(57.75, 711, 400)" opacity="0.47"></path><path d="M731.35 167.75Q742.38 178.76 752.44 189.85 761.58 200.73 769.91 211.13 777.59 220.79 784.8 229.51 791.76 237.15 798.72 243.65 805.94 249.03 813.68 253.39 822.16 256.91 831.62 259.84 842.23 262.48 854.11 265.14 867.36 268.16 881.99 271.85 891.07 285.84 903.27 299.83 916.47 313.82 928.36 327.82 936.89 341.81 940.56 355.8 938.74 369.79 931.74 383.79 920.78 397.78 907.77 411.77 894.97 425.77 884.62 439.76 878.5 453.75 877.7 467.75 882.34 481.74 891.62 495.73 885.37 507.26 879.38 519.89 873.33 533.24 866.96 546.86 860 560.3 852.25 573.09 843.51 584.81 833.68 595.12 822.68 603.75 810.52 610.58 797.23 615.61 782.91 618.95 767.7 620.87 751.77 621.72 735.33 621.94 718.58 622.03 709.89 608.39 700.48 595.78 690.26 584.58 679.17 575.05 667.21 567.34 654.41 561.47 640.85 557.32 626.63 554.65 611.88 553.11 596.76 552.29 581.43 551.72 566.05 550.93 550.76 549.47 535.71 546.94 521.01 543.03 506.75 537.52 503.42 522.86 501.76 508.2 502.05 493.54 504.24 478.88 507.96 464.22 512.55 449.56 517.21 434.9 521.14 420.24 523.65 405.58 524.31 390.92 522.99 376.26 519.93 361.6 515.67 346.94 510.93 332.28 506.55 317.62 503.3 302.96 514.05 294.3 525.22 284.54 536.9 273.91 549.19 262.65 562.13 251.1 575.77 239.56 590.08 228.35 605.02 217.75 620.51 208.01 636.43 199.28 652.62 191.65 668.92 185.14 685.14 179.66 701.07 175.08 723.95 169.47 731.35 167.75" stroke-dasharray="0 3" transform="rotate(61.875, 711, 400)" opacity="0.50"></path><path d="M727.42 180.37Q736.42 190.85 744.7 201.42 752.36 211.82 759.55 221.82 766.43 231.19 773.19 239.75 780.05 247.35 787.19 253.94 794.84 259.48 803.18 264.04 812.39 267.74 822.61 270.76 833.93 273.32 846.43 275.7 860.11 278.18 874.94 281.02 884.79 294.3 896.7 307.57 908.8 320.85 919.23 334.12 926.35 347.4 929.07 360.67 926.95 373.95 920.33 387.22 910.24 400.5 898.24 413.77 886.21 427.05 876.01 440.32 869.22 453.6 866.91 466.87 869.44 480.15 876.4 493.43 869.87 505.16 863.78 517.58 857.9 530.34 851.99 543.06 845.81 555.33 839.15 566.81 831.83 577.16 823.71 586.14 814.68 593.59 804.66 599.43 793.63 603.71 781.62 606.55 768.68 608.21 754.91 608.97 740.43 609.24 725.4 609.4 716.09 596.58 705.99 584.64 695.06 573.91 683.33 564.63 670.83 556.93 657.66 550.85 643.91 546.34 629.7 543.22 615.18 541.25 600.47 540.09 585.74 539.39 571.11 538.75 556.69 537.78 542.61 536.11 528.92 533.43 515.71 529.49 513.04 515.66 512.07 501.84 512.96 488.02 515.56 474.2 519.47 460.37 524.08 446.55 528.68 432.73 532.55 418.9 535.09 405.08 535.9 391.26 534.86 377.44 532.12 363.62 528.13 349.79 523.49 335.97 518.92 322.15 515.15 308.33 524.92 299.2 534.99 289.24 545.47 278.66 556.45 267.72 568 256.69 580.18 245.86 593.02 235.47 606.49 225.76 620.58 216.89 635.21 208.99 650.28 202.1 665.68 196.22 681.26 191.27 696.86 187.1 719.86 181.96 727.42 180.37" stroke-dasharray="4 4" transform="rotate(66, 711, 400)" opacity="0.53"></path><path d="M721.22 192.99Q728.71 202.93 735.76 212.95 742.5 222.85 749.09 232.43 755.68 241.48 762.44 249.83 769.54 257.37 777.13 264 785.37 269.68 794.39 274.45 804.3 278.36 815.16 281.55 827.03 284.18 839.91 286.46 853.77 288.62 868.55 290.89 878.7 303.45 889.99 316.01 900.87 328.58 909.83 341.14 915.65 353.7 917.51 366.26 915.16 378.82 908.93 391.38 899.67 403.95 888.66 416.51 877.43 429.07 867.51 441.63 860.28 454.2 856.74 466.76 857.37 479.32 862.09 491.88 855.19 503.46 848.86 515.37 842.92 527.3 837.17 538.92 831.42 549.94 825.48 560.07 819.18 569.08 812.36 576.81 804.9 583.16 796.69 588.11 787.67 591.72 777.8 594.13 767.08 595.55 755.53 596.25 743.22 596.55 730.23 596.79 720.14 584.77 709.28 573.51 697.71 563.28 685.46 554.28 672.64 546.65 659.33 540.44 645.65 535.63 631.72 532.11 617.66 529.69 603.61 528.15 589.67 527.2 575.95 526.52 562.54 525.79 549.52 524.7 536.92 522.94 524.8 520.26 522.87 507.29 522.61 494.32 524.06 481.35 527.02 468.38 531.07 455.41 535.67 442.44 540.17 429.47 543.95 416.5 546.5 403.53 547.46 390.56 546.7 377.58 544.32 364.61 540.66 351.64 536.21 338.67 531.59 325.7 527.44 312.74 536.31 303.36 545.37 293.41 554.73 283.08 564.48 272.62 574.69 262.26 585.44 252.22 596.77 242.71 608.71 233.89 621.26 225.9 634.39 218.81 648.07 212.64 662.21 207.36 676.72 202.9 691.48 199.13 713.79 194.44 721.22 192.99" stroke-dasharray="3 5" transform="rotate(70.125, 711, 400)" opacity="0.55"></path><path d="M713.62 205.61Q720.14 214.99 726.52 224.47 732.88 233.85 739.34 242.98 746.04 251.67 753.12 259.79 760.68 267.21 768.86 273.84 777.73 279.63 787.38 284.58 797.86 288.73 809.19 292.14 821.38 294.94 834.39 297.27 848.17 299.31 862.64 301.26 872.65 313.1 883.07 324.95 892.63 336.8 900.16 348.65 904.77 360.49 905.88 372.34 903.36 384.19 897.52 396.04 889.07 407.88 879.03 419.73 868.62 431.58 859.1 443.43 851.64 455.28 847.13 467.13 846.13 478.97 848.76 490.82 841.47 501.91 834.82 513.03 828.66 523.93 822.86 534.34 817.25 544.05 811.69 552.84 799.9 566.52 787 576.61 771.24 581.26 753.41 583.54 743.26 583.87 732.41 584.17 721.58 572.96 710.12 562.38 698.11 552.68 685.62 544.01 672.75 536.51 659.61 530.24 646.29 525.19 632.92 521.31 619.58 518.48 606.39 516.53 593.43 515.24 580.77 514.38 568.47 513.69 556.58 512.9 545.13 511.75 534.13 510.02 532.98 497.91 533.42 485.8 535.38 473.69 538.63 461.58 542.77 449.47 547.31 437.36 551.68 425.26 555.36 413.15 557.9 401.04 559 388.93 558.51 376.82 556.51 364.71 553.23 352.6 549.06 340.5 544.53 328.39 540.17 316.28 548.22 306.9 556.37 297.17 564.71 287.29 573.32 277.46 582.29 267.87 591.67 258.7 601.55 250.1 611.95 242.19 622.91 235.06 634.44 228.76 646.53 223.27 659.15 218.57 672.24 214.58 685.75 211.19 706.6 206.93 713.62 205.61" stroke-dasharray="5 7" transform="rotate(74.25, 711, 400)" opacity="0.58"></path><path d="M705.65 218.23Q711.76 227.05 717.96 235.96 724.35 244.82 731.03 253.47 738.11 261.77 745.68 269.6 753.8 276.85 762.55 283.43 771.98 289.29 782.11 294.4 792.97 298.76 804.53 302.43 816.78 305.46 829.65 307.96 843.09 310.05 857 311.9 866.51 323.02 875.85 334.15 884.05 345.28 890.23 356.4 893.73 367.53 894.19 378.66 891.56 389.79 886.12 400.91 878.44 412.04 869.33 423.17 859.77 434.3 850.76 445.42 843.25 456.55 838.05 467.68 835.71 478.81 836.46 489.94 828.82 500.25 821.82 510.36 815.37 520.08 809.37 529.21 803.7 537.59 798.24 545.09 787.39 556.57 776.11 564.97 763.13 568.85 748.66 570.84 740.45 571.2 731.63 571.55 720.31 561.13 708.55 551.25 696.43 542.09 684.04 533.81 671.48 526.5 658.82 520.23 646.18 515.02 633.62 510.85 621.24 507.64 609.09 505.28 597.25 503.61 585.75 502.46 574.65 501.64 563.94 500.93 548.54 493.94 544.51 476.51 546.92 465.27 550.39 454.02 554.56 442.78 558.99 431.54 563.21 420.29 566.76 409.05 569.28 397.81 570.5 386.56 570.29 375.32 568.67 364.08 565.81 352.83 562.01 341.59 557.69 330.35 553.29 319.11 560.62 309.95 567.97 300.67 575.41 291.41 583.01 282.34 590.84 273.62 598.98 265.36 607.5 257.69 616.44 250.68 625.84 244.39 635.75 238.84 646.18 234 657.13 229.85 668.59 226.31 680.53 223.27 699.28 219.42 705.65 218.23" stroke-dasharray="7 4" transform="rotate(78.375, 711, 400)" opacity="0.61"></path><path d="M698.42 230.84Q704.54 239.09 710.92 247.43 717.63 255.74 724.74 263.89 732.31 271.77 740.39 279.27 749.02 286.3 758.23 292.78 768.04 298.64 778.44 303.86 789.41 308.41 800.94 312.32 812.98 315.61 825.45 318.36 838.3 320.65 851.44 322.57 860.14 332.96 868.28 343.36 875.11 353.76 880.01 364.15 882.53 374.55 882.45 384.95 879.76 395.34 874.71 405.74 867.77 416.13 859.57 426.53 850.87 436.93 842.44 447.33 835.08 457.72 829.44 468.12 826.05 478.52 825.21 488.91 817.3 498.22 809.99 507.17 803.24 515.63 796.96 523.46 785.66 536.39 775.04 546.74 764.61 552.81 753.78 556.67 741.5 558.06 728.01 558.94 716.57 549.31 704.9 540.12 693.08 531.54 681.17 523.67 669.26 516.6 657.41 510.42 645.71 505.13 634.2 500.74 622.95 497.2 612 494.46 601.38 492.4 591.12 490.9 581.24 489.82 571.74 489 558.43 482.68 555.91 466.71 558.68 456.33 562.31 445.95 566.45 435.57 570.73 425.2 574.76 414.82 578.17 404.44 580.65 394.06 581.97 383.68 582.01 373.3 580.77 362.92 578.37 352.54 575.01 342.16 571.01 331.78 566.73 321.4 573.44 312.71 580.09 304.05 586.75 295.56 593.48 287.36 600.33 279.56 607.38 272.24 614.68 265.5 622.29 259.37 630.26 253.89 638.62 249.05 647.43 244.83 656.69 241.19 666.43 238.07 676.64 235.37 692.86 231.92 698.42 230.84" stroke-dasharray="7 4" transform="rotate(82.5, 711, 400)" opacity="0.64"></path><path d="M692.92 243.46Q699.34 251.13 706.1 258.89 713.24 266.63 720.81 274.26 728.82 281.68 737.32 288.81 746.3 295.57 755.76 301.87 765.7 307.68 776.1 312.94 786.93 317.63 798.15 321.75 809.7 325.31 821.53 328.34 833.58 330.89 845.77 333.02 853.44 342.68 860.29 352.33 865.8 361.98 869.53 371.63 871.19 381.28 870.65 390.94 867.95 400.59 863.31 410.24 857.08 419.89 849.75 429.54 841.9 439.2 834.13 448.85 827.05 458.5 821.22 468.15 817.09 477.8 814.97 487.45 806.9 495.59 799.38 503.3 792.37 510.47 785.83 517.02 774.13 527.65 763.34 536.07 745.92 542.96 733.23 545.48 727.77 545.9 722.04 546.32 710.94 537.47 699.79 528.99 688.65 520.99 677.58 513.58 666.64 506.82 655.87 500.78 645.32 495.49 635.04 490.96 625.05 487.18 615.38 484.1 606.05 481.66 597.05 479.78 580.24 477.43 564.38 475.75 565.48 466.23 567.63 456.7 570.67 447.18 574.36 437.66 578.41 428.14 582.51 418.62 586.33 409.1 589.57 399.57 591.99 390.05 593.4 380.53 593.68 371.01 592.82 361.49 590.87 351.97 588 342.44 584.43 332.92 580.43 323.4 586.6 315.37 592.67 307.5 598.67 299.88 604.66 292.62 616.88 279.67 629.53 268.29 643.37 259.67 658.18 252.61 666.24 249.87 674.71 247.49 688.26 244.42 692.92 243.46" stroke-dasharray="7 7" transform="rotate(86.625, 711, 400)" opacity="0.67"></path><path d="M689.92 256.09Q703.88 270.33 719.33 284.57 736.33 298.22 754.87 310.72 774.78 321.63 795.82 330.67 817.63 337.76 839.79 343.03 851.85 360.81 858.78 378.59 858.8 396.37 851.9 414.15 839.87 431.93 825.8 449.71 813.33 467.49 805.68 485.27 789.99 498.6 776.09 509.84 763.8 518.7 752.83 525.1 742.83 529.25 733.39 531.61 724.1 532.82 714.54 533.69 693.98 517.85 673.94 503.53 654.71 491.32 636.53 481.52 619.51 474.23 603.71 469.22 589.07 466.06 575.45 464.11 579.68 446.77 586.56 429.42 594.33 412.08 600.98 394.73 604.79 377.39 604.78 360.04 600.95 342.69 594.29 325.35 605.57 311.17 616.42 298.22 627.14 286.9 638.05 277.46 649.49 269.91 661.77 264.1 682.55 257.87 689.92 256.09" stroke-dasharray="10 6" transform="rotate(90.75, 711, 400)" opacity="0.70"></path><path d="M689.82 268.7Q704.37 281.74 720.14 294.82 737.11 307.49 755.15 319.31 774.08 329.91 793.62 339.01 813.49 346.49 833.33 352.35 842.89 368.58 847.76 384.81 846.9 401.03 840.5 417.26 829.91 433.49 817.42 449.72 805.69 465.94 797.24 482.17 781.78 493 767.79 501.95 755.2 508.89 743.88 513.88 733.63 517.15 724.19 519.08 715.26 520.19 706.56 521.08 688.36 506.71 670.94 493.55 654.46 482.02 639 472.43 624.6 464.87 611.23 459.28 598.77 455.42 587.1 452.89 592.04 437.22 598.9 421.54 606.2 405.87 612.38 390.19 616.13 374.51 616.63 358.83 613.78 343.16 608.2 327.48 618.65 315.22 628.57 304.22 638.16 294.74 647.66 286.87 657.32 280.56 667.4 275.65 683.99 270.26 689.82 268.7" stroke-dasharray="4 3" transform="rotate(94.875, 711, 400)" opacity="0.73"></path><path d="M692.65 281.32Q707.3 293.13 722.85 305.02 739.18 316.64 756.15 327.66 773.57 337.78 791.22 346.77 808.87 354.47 826.26 360.81 833.42 375.45 836.5 390.1 834.97 404.74 829.09 419.38 819.89 434.03 808.97 448.67 798.22 463.31 789.53 477.96 774.63 486.44 760.87 493.33 748.24 498.62 736.72 502.43 726.21 504.97 716.57 506.55 707.63 507.57 699.19 508.46 683.78 495.57 669.2 483.59 655.52 472.88 642.73 463.64 630.82 456.02 619.69 450.03 609.24 445.54 599.33 442.35 604.71 428.31 611.35 414.27 618.1 400.24 623.79 386.2 627.42 372.16 628.37 358.13 626.46 344.09 622.04 330.06 631.76 319.79 640.92 310.72 649.63 302.97 658.06 296.54 666.38 291.37 674.78 287.27 688.06 282.67 692.65 281.32" stroke-dasharray="6 11" transform="rotate(99, 711, 400)" opacity="0.76"></path><path d="M698 293.94Q712.16 304.5 726.84 315.16 741.94 325.66 757.32 335.77 772.83 345.25 788.31 353.92 803.57 361.62 818.46 368.27 823.41 381.3 825 394.34 823 407.37 817.69 420.4 809.8 433.44 800.42 446.47 790.84 459.5 782.39 472.54 768.39 478.91 755.21 484.02 742.89 487.94 731.44 490.78 720.84 492.74 711.03 494.04 701.93 494.97 693.45 495.84 680.96 484.42 669.21 473.68 658.21 463.87 647.91 455.17 638.24 447.69 629.13 441.48 619.06 428.4 623.91 407.85 630.04 395.42 635.19 383 638.66 370.57 639.97 358.15 638.93 345.72 635.7 333.3 644.73 325.02 653.22 317.77 661.24 311.6 668.87 306.48 690.72 296.61 698 293.94" stroke-dasharray="3 9" transform="rotate(103.125, 711, 400)" opacity="0.79"></path><path d="M705.15 306.56Q718.16 315.86 731.4 325.26 744.77 334.58 758.17 343.67 771.48 352.35 784.6 360.48 797.42 367.95 809.84 374.66 812.87 386.06 813.27 397.46 811 408.86 806.28 420.26 799.63 431.66 791.75 443.07 783.47 454.47 775.67 465.87 762.89 470.44 750.65 474.08 739 476.89 727.98 478.97 717.59 480.46 707.84 481.54 698.7 482.39 690.12 483.22 680.43 473.26 671.3 463.79 662.71 454.98 654.59 446.96 646.89 439.83 639.52 433.65 631.64 420.85 636.58 402.45 642.01 391.6 646.6 380.76 649.85 369.92 651.42 359.08 651.15 348.25 649.05 337.41 657.39 330.99 665.26 325.42 679.53 317.04 692.8 310.73 702.09 307.52 705.15 306.56" stroke-dasharray="7 2" transform="rotate(107.25, 711, 400)" opacity="0.82"></path><path d="M713.1 319.17Q724.42 327.2 735.75 335.31 747.03 343.4 758.19 351.37 769.16 359.1 779.89 366.49 790.31 373.47 800.35 379.94 801.81 389.7 801.34 399.46 798.96 409.22 794.87 418.97 789.39 428.73 782.94 438.49 776.03 448.24 769.19 458 757.91 461.1 746.94 463.59 736.34 465.54 726.13 467.03 716.35 468.17 707.01 469.06 690.28 465.96 675.56 453.92 669.01 446.2 662.73 439.01 650.85 426.85 639.3 416.74 644.28 407.46 649.32 398.18 654.01 388.91 658 379.63 660.98 370.35 662.71 361.07 666.32 344.79 676.79 333.68 689.95 327.41 702.12 322.56 710.41 319.97 713.1 319.17" stroke-dasharray="2 4" transform="rotate(111.375, 711, 400)" opacity="0.85"></path><path d="M720.77 331.8Q739.14 345.32 756.98 358.89 774.01 372 789.98 384.17 789.21 400.38 783.47 416.6 773.98 432.81 762.79 449.03 743.8 452.64 725.58 455.01 708.32 456.6 692.18 457.98 681.86 444.07 672.16 431.29 662.8 420.04 653.52 410.57 662.12 395.11 669.41 379.65 673.82 364.18 674.41 348.72 687.6 342.55 699.7 337.9 715.75 333.13 720.77 331.8" stroke-dasharray="9 9" transform="rotate(115.5, 711, 400)" opacity="0.88"></path><path d="M727.08 344.42Q740.94 355.3 754.24 366.27 766.87 377.07 778.74 387.44 776.92 400.36 772.06 413.28 764.86 426.2 756.29 439.11 740.94 441.33 725.9 442.93 711.31 444.18 697.27 445.36 689.85 434.24 682.6 423.76 675.37 414.16 668.04 405.6 674.97 393.22 680.81 380.83 684.74 368.43 686.22 356.04 697.52 352.02 708.11 348.88 722.52 345.42 727.08 344.42" stroke-dasharray="5 3" transform="rotate(119.625, 711, 400)" opacity="0.91"></path><path d="M731.18 357.03Q740.68 365.24 749.78 373.53 758.46 381.79 766.68 389.92 764.47 399.56 760.66 409.2 755.55 418.84 749.54 428.48 738.05 429.78 726.63 430.84 715.35 431.79 704.25 432.75 698.99 424.4 693.69 416.39 688.07 400.61 692.22 383.09 700.95 367.91 715.09 360.09 727.26 357.74 731.18 357.03" stroke-dasharray="3 6" transform="rotate(123.75, 711, 400)" opacity="0.94"></path><path d="M732.49 369.65Q743.58 380.69 753.88 391.82 749.26 404.59 742.39 417.38 727.27 418.79 712.17 420.13 704.99 409.15 697.44 398.8 703.63 386.32 707.79 373.84 726.48 370.58 732.49 369.65" stroke-dasharray="6 10" transform="rotate(127.875, 711, 400)" opacity="0.97"></path></g></svg>