<svg width="194" height="28" viewBox="0 0 194 28" fill="none" xmlns="http://www.w3.org/2000/svg">
<path d="M33.8 23.76C33.1173 23.76 32.6373 23.6 32.36 23.28C32.0827 22.9387 31.944 22.5227 31.944 22.032C31.944 21.456 32.0613 20.8373 32.296 20.176C32.552 19.5147 32.8293 18.896 33.128 18.32C33.4267 17.744 33.6613 17.3173 33.832 17.04C34.3013 16.2293 34.92 15.248 35.688 14.096C36.456 12.944 37.32 11.7493 38.28 10.512C39.2613 9.25333 40.296 8.06933 41.384 6.96C42.472 5.82933 43.56 4.89067 44.648 4.144C45.7573 3.376 46.8347 2.91733 47.88 2.768C48.4347 2.68267 48.712 2.448 48.712 2.064C48.712 1.872 48.616 1.70133 48.424 1.552C48.2533 1.40267 48.008 1.34933 47.688 1.392C47.304 1.456 46.7493 1.584 46.024 1.776C45.2987 1.968 44.5307 2.34133 43.72 2.896C42.3333 3.83467 40.808 5.2 39.144 6.992C37.48 8.784 35.7733 10.9173 34.024 13.392C33.96 13.4773 33.8853 13.52 33.8 13.52C33.672 13.52 33.5653 13.4667 33.48 13.36C33.416 13.2533 33.4267 13.136 33.512 13.008C35.2613 10.5333 36.9787 8.38933 38.664 6.576C40.3493 4.74133 41.9067 3.344 43.336 2.384C43.528 2.256 43.88 2.064 44.392 1.808C44.904 1.53067 45.4693 1.28533 46.088 1.072C46.728 0.858665 47.3147 0.751999 47.848 0.751999C48.2107 0.751999 48.52 0.837332 48.776 1.008C49.0533 1.15733 49.2347 1.43467 49.32 1.84C49.384 2.18133 49.2987 2.512 49.064 2.832C48.8293 3.13067 48.456 3.32267 47.944 3.408C46.984 3.536 45.9813 3.96267 44.936 4.688C43.8907 5.41333 42.8453 6.32 41.8 7.408C40.7547 8.496 39.752 9.648 38.792 10.864C37.8533 12.08 37 13.264 36.232 14.416C35.4853 15.5467 34.8667 16.528 34.376 17.36C34.248 17.5733 34.0347 17.9467 33.736 18.48C33.4587 19.0133 33.192 19.6 32.936 20.24C32.7013 20.8587 32.584 21.424 32.584 21.936C32.584 22.2773 32.6693 22.5653 32.84 22.8C33.032 23.0133 33.352 23.12 33.8 23.12C34.3973 23.12 35.0587 22.992 35.784 22.736C36.5307 22.4587 37.256 22.064 37.96 21.552C38.6853 21.0187 39.3147 20.3787 39.848 19.632C39.912 19.5467 39.9867 19.504 40.072 19.504C40.1787 19.504 40.264 19.568 40.328 19.696C40.4133 19.8027 40.424 19.9093 40.36 20.016C39.8053 20.8053 39.144 21.4773 38.376 22.032C37.6293 22.5867 36.8507 23.0133 36.04 23.312C35.2507 23.6107 34.504 23.76 33.8 23.76ZM10.024 27.632C8.296 27.7813 6.696 27.6427 5.224 27.216C3.752 26.7893 2.568 26.0853 1.672 25.104C0.776 24.1013 0.328 22.8427 0.328 21.328C0.328 20.048 0.68 18.896 1.384 17.872C2.088 16.8267 3.02667 15.9413 4.2 15.216C5.37333 14.4693 6.664 13.904 8.072 13.52C9.50133 13.1147 10.9307 12.912 12.36 12.912C13.1067 12.912 13.928 12.9653 14.824 13.072C15.7413 13.1787 16.6267 13.36 17.48 13.616C18.3333 13.8507 19.048 14.2027 19.624 14.672C20.2213 15.12 20.5733 15.696 20.68 16.4C20.7227 16.6987 20.68 16.9547 20.552 17.168C20.424 17.3813 20.232 17.488 19.976 17.488C19.8053 17.488 19.6453 17.4453 19.496 17.36C19.1333 17.168 18.7813 16.9653 18.44 16.752C18.0987 16.5173 17.736 16.304 17.352 16.112C16.8187 15.8347 16.168 15.5893 15.4 15.376C14.6533 15.1413 13.7893 15.024 12.808 15.024C11.6987 15.024 10.568 15.1733 9.416 15.472C8.264 15.7707 7.208 16.1973 6.248 16.752C5.30933 17.3067 4.54133 17.9787 3.944 18.768C3.368 19.5573 3.08 20.4427 3.08 21.424C3.08 22.448 3.4 23.2587 4.04 23.856C4.70133 24.4533 5.544 24.8693 6.568 25.104C7.61333 25.3173 8.712 25.3813 9.864 25.296C10.952 25.1893 12.0933 24.7733 13.288 24.048C14.504 23.3227 15.7307 22.384 16.968 21.232C18.2053 20.0587 19.4213 18.7893 20.616 17.424C21.832 16.0373 22.984 14.64 24.072 13.232C25.16 11.8027 26.1413 10.4587 27.016 9.2C27.8907 7.92 28.616 6.84267 29.192 5.968C28.4667 5.54133 27.5707 5.18933 26.504 4.912C25.4587 4.63467 24.3173 4.432 23.08 4.304C21.8427 4.15466 20.584 4.08 19.304 4.08C17.4267 4.08 15.624 4.24 13.896 4.56C12.168 4.88 10.792 5.38133 9.768 6.064C9.23467 6.42667 8.73333 6.91733 8.264 7.536C7.79467 8.13333 7.56 8.74133 7.56 9.36C7.56 9.76533 7.45333 10.0853 7.24 10.32C7.048 10.5333 6.824 10.64 6.568 10.64C6.29067 10.64 6.03467 10.4907 5.8 10.192C5.56533 9.872 5.448 9.38133 5.448 8.72C5.448 8.03733 5.608 7.39733 5.928 6.8C6.26933 6.20267 6.696 5.66933 7.208 5.2C7.74133 4.73067 8.28533 4.336 8.84 4.016C9.69333 3.52533 10.6533 3.14133 11.72 2.864C12.808 2.56533 13.9067 2.34133 15.016 2.192C16.1467 2.04267 17.2027 1.94667 18.184 1.904C19.1867 1.86133 20.0187 1.84 20.68 1.84C21.512 1.84 22.5147 1.89333 23.688 2C24.8613 2.10666 26.0667 2.27733 27.304 2.512C28.5627 2.74667 29.7573 3.04533 30.888 3.408C32.0187 3.77067 32.9467 4.208 33.672 4.72C34.0133 4.95467 34.3013 5.22133 34.536 5.52C34.7707 5.81867 34.888 6.14933 34.888 6.512C34.888 6.576 34.8773 6.64 34.856 6.704C34.856 6.768 34.8453 6.832 34.824 6.896C34.7173 7.30133 34.5467 7.58933 34.312 7.76C34.0773 7.93067 33.8107 8.016 33.512 8.016C33.2347 8.016 32.936 7.952 32.616 7.824C32.3173 7.696 32.04 7.54667 31.784 7.376C31.592 7.696 31.2613 8.21867 30.792 8.944C30.3227 9.66933 29.8 10.4693 29.224 11.344C28.6693 12.1973 28.1253 12.9973 27.592 13.744H32.84C33.0533 13.744 33.16 13.8507 33.16 14.064C33.16 14.2773 33.0533 14.384 32.84 14.384H26.984C26.8347 14.384 26.728 14.3307 26.664 14.224C26.6213 14.1173 26.6427 14 26.728 13.872C27.1973 13.2107 27.6987 12.4747 28.232 11.664C28.7867 10.8533 29.2987 10.0747 29.768 9.328C30.2587 8.58133 30.6533 7.97333 30.952 7.504C31.272 7.01333 31.432 6.768 31.432 6.768C31.496 6.68267 31.5813 6.64 31.688 6.64C31.8587 6.64 32.0827 6.74667 32.36 6.96C32.6587 7.17333 32.968 7.30133 33.288 7.344C33.3307 7.344 33.3627 7.35467 33.384 7.376C33.4267 7.376 33.4587 7.376 33.48 7.376C33.864 7.376 34.1093 7.16267 34.216 6.736C34.3227 6.37333 34.2053 6.032 33.864 5.712C33.5227 5.37067 33.0853 5.072 32.552 4.816C32.04 4.56 31.5387 4.34667 31.048 4.176C30.5573 4.00533 30.2053 3.888 29.992 3.824C28.6267 3.39733 27.1013 3.06667 25.416 2.832C23.7307 2.59733 22.152 2.48 20.68 2.48C19.9973 2.48 19.1653 2.50133 18.184 2.544C17.224 2.58667 16.2 2.68267 15.112 2.832C14.0453 2.96 12.9893 3.17333 11.944 3.472C10.8987 3.74933 9.97067 4.12267 9.16 4.592C8.34933 5.06133 7.63467 5.65867 7.016 6.384C6.39733 7.088 6.088 7.86667 6.088 8.72C6.088 9.168 6.14133 9.49867 6.248 9.712C6.35467 9.904 6.46133 10 6.568 10C6.80267 10 6.92 9.78667 6.92 9.36C6.92 8.54933 7.18667 7.80267 7.72 7.12C8.27467 6.43733 8.82933 5.91467 9.384 5.552C10.472 4.82667 11.912 4.29333 13.704 3.952C15.5173 3.61067 17.3947 3.44 19.336 3.44C20.7013 3.44 22.0453 3.52533 23.368 3.696C24.6907 3.84533 25.9067 4.08 27.016 4.4C28.1467 4.72 29.0747 5.12533 29.8 5.616C29.8853 5.63733 29.928 5.70133 29.928 5.808C29.9493 5.89333 29.9387 5.97867 29.896 6.064C29.2987 6.98133 28.5413 8.09067 27.624 9.392C26.728 10.6933 25.7253 12.0693 24.616 13.52C23.528 14.9707 22.3653 16.4107 21.128 17.84C19.8907 19.248 18.6213 20.5493 17.32 21.744C16.04 22.9387 14.7707 23.9093 13.512 24.656C12.2533 25.4027 11.048 25.8293 9.896 25.936C8.57333 26.0427 7.34667 25.9573 6.216 25.68C5.08533 25.4027 4.168 24.912 3.464 24.208C2.78133 23.504 2.44 22.5867 2.44 21.456C2.44 20.368 2.74933 19.3867 3.368 18.512C3.98667 17.6373 4.808 16.9013 5.832 16.304C6.856 15.6853 7.976 15.216 9.192 14.896C10.408 14.5547 11.6133 14.384 12.808 14.384C14.0453 14.384 15.176 14.5653 16.2 14.928C17.224 15.2907 18.2587 15.8133 19.304 16.496C19.4107 16.56 19.5173 16.624 19.624 16.688C19.7307 16.752 19.8373 16.8053 19.944 16.848C20.008 16.848 20.04 16.7947 20.04 16.688C20.04 16.5813 20.04 16.5173 20.04 16.496C19.9547 15.8987 19.6347 15.4187 19.08 15.056C18.5253 14.672 17.8427 14.3733 17.032 14.16C16.2213 13.9467 15.3893 13.7973 14.536 13.712C13.704 13.6267 12.9573 13.584 12.296 13.584C10.888 13.584 9.512 13.776 8.168 14.16C6.824 14.5227 5.608 15.056 4.52 15.76C3.432 16.4427 2.55733 17.264 1.896 18.224C1.256 19.1627 0.936 20.208 0.936 21.36C0.936 22.7467 1.36267 23.8773 2.216 24.752C3.06933 25.6267 4.17867 26.2453 5.544 26.608C6.93067 26.992 8.40267 27.12 9.96 26.992C11.048 26.9067 12.168 26.5867 13.32 26.032C14.472 25.4773 15.6133 24.7947 16.744 23.984C17.8747 23.152 18.9413 22.2667 19.944 21.328C20.968 20.3893 21.8747 19.472 22.664 18.576C23.4747 17.68 24.136 16.8907 24.648 16.208C24.712 16.1227 24.7973 16.08 24.904 16.08C25.0107 16.08 25.1067 16.1333 25.192 16.24C25.2773 16.3467 25.2667 16.464 25.16 16.592C24.648 17.2533 23.976 18.0427 23.144 18.96C22.3333 19.8773 21.4053 20.8267 20.36 21.808C19.336 22.768 18.2373 23.6747 17.064 24.528C15.912 25.36 14.728 26.0533 13.512 26.608C12.3173 27.184 11.1547 27.5253 10.024 27.632ZM32.456 26.16C31.1547 26.16 30.248 25.8507 29.736 25.232C29.224 24.592 28.968 23.8133 28.968 22.896C28.968 22.192 29.0747 21.456 29.288 20.688C29.5013 19.92 29.7573 19.1947 30.056 18.512C30.376 17.808 30.664 17.2213 30.92 16.752H26.728C26.5147 16.752 26.408 16.6453 26.408 16.432C26.408 16.2187 26.5147 16.112 26.728 16.112L31.496 16.144C31.6667 16.144 31.7733 16.1973 31.816 16.304C31.8587 16.3893 31.8373 16.496 31.752 16.624C31.4747 17.0293 31.1653 17.584 30.824 18.288C30.4827 18.992 30.184 19.7387 29.928 20.528C29.6933 21.3173 29.576 22.064 29.576 22.768C29.576 23.5573 29.7787 24.2187 30.184 24.752C30.6107 25.264 31.368 25.52 32.456 25.52C33.2453 25.52 34.0453 25.3387 34.856 24.976C35.6667 24.6133 36.4453 24.1867 37.192 23.696C37.2773 23.6533 37.3307 23.632 37.352 23.632C37.4587 23.632 37.5333 23.6747 37.576 23.76C37.64 23.824 37.672 23.8987 37.672 23.984C37.672 24.0907 37.6293 24.176 37.544 24.24C36.776 24.7307 35.9547 25.1787 35.08 25.584C34.2053 25.968 33.3307 26.16 32.456 26.16ZM48.3818 20.336C48.2538 20.336 48.1471 20.2827 48.0618 20.176C47.9978 20.0693 48.0084 19.952 48.0938 19.824C48.7338 18.8853 49.0538 17.9787 49.0538 17.104C49.0538 16.4853 48.8618 15.984 48.4778 15.6C48.1151 15.1947 47.5604 14.992 46.8138 14.992C45.7044 14.992 44.6164 15.4827 43.5498 16.464C42.5044 17.424 41.4271 18.6293 40.3178 20.08C40.2538 20.144 40.1898 20.176 40.1258 20.176C40.0191 20.176 39.9337 20.112 39.8697 19.984C39.7844 19.856 39.7844 19.728 39.8697 19.6C40.5951 18.64 41.3204 17.7653 42.0458 16.976C42.7711 16.1867 43.5178 15.5573 44.2858 15.088C45.0751 14.6187 45.8964 14.384 46.7498 14.384C47.8164 14.384 48.5738 14.64 49.0218 15.152C49.4698 15.664 49.6938 16.2827 49.6938 17.008C49.6938 17.5413 49.5978 18.0853 49.4058 18.64C49.2138 19.1947 48.9471 19.7173 48.6058 20.208C48.5418 20.2933 48.4671 20.336 48.3818 20.336ZM42.6218 24.304C42.1738 24.304 41.8218 24.1547 41.5658 23.856C41.3311 23.536 41.2138 23.1307 41.2138 22.64C41.2138 22 41.4058 21.296 41.7898 20.528C42.1738 19.76 42.6644 19.0347 43.2618 18.352C43.8804 17.648 44.5204 17.072 45.1818 16.624C45.8431 16.176 46.4404 15.952 46.9738 15.952C47.2724 15.952 47.4218 16.0587 47.4218 16.272C47.4218 16.3573 47.3898 16.4427 47.3258 16.528C47.2618 16.592 47.1764 16.6133 47.0698 16.592C46.6218 16.5493 46.0991 16.7307 45.5018 17.136C44.9258 17.5413 44.3604 18.064 43.8058 18.704C43.2511 19.344 42.7818 20.0267 42.3978 20.752C42.0351 21.456 41.8538 22.096 41.8538 22.672C41.8538 22.9493 41.9071 23.184 42.0138 23.376C42.1204 23.568 42.3231 23.664 42.6218 23.664C42.9631 23.664 43.3258 23.5573 43.7098 23.344C44.0938 23.1093 44.4458 22.832 44.7658 22.512C45.0858 22.192 45.3204 21.8933 45.4698 21.616C45.5338 21.5093 45.6191 21.456 45.7258 21.456C45.8324 21.456 45.9284 21.5093 46.0138 21.616C46.0991 21.7013 46.0991 21.808 46.0138 21.936C45.8218 22.256 45.5444 22.608 45.1818 22.992C44.8191 23.3547 44.4138 23.664 43.9658 23.92C43.5178 24.176 43.0698 24.304 42.6218 24.304ZM47.9978 21.744C47.2938 21.744 46.6858 21.5307 46.1738 21.104C45.6618 20.6773 45.4058 20.1013 45.4058 19.376C45.4058 19.12 45.4378 18.8533 45.5018 18.576C45.5871 18.2773 45.7044 17.968 45.8538 17.648C45.9178 17.52 46.0138 17.456 46.1418 17.456C46.2484 17.456 46.3338 17.4987 46.3978 17.584C46.4831 17.6693 46.4938 17.776 46.4298 17.904C46.3018 18.16 46.2058 18.4053 46.1418 18.64C46.0991 18.8747 46.0778 19.0987 46.0778 19.312C46.0778 19.888 46.2698 20.336 46.6538 20.656C47.0378 20.9547 47.4964 21.104 48.0298 21.104C48.4991 21.104 48.9791 20.9867 49.4698 20.752C49.9604 20.5173 50.4084 20.144 50.8138 19.632C50.8778 19.5467 50.9524 19.504 51.0378 19.504C51.1444 19.504 51.2404 19.568 51.3258 19.696C51.4111 19.8027 51.4111 19.9093 51.3258 20.016C50.8351 20.6133 50.2911 21.0507 49.6938 21.328C49.1178 21.6053 48.5524 21.744 47.9978 21.744ZM42.5578 26.32C41.6404 26.32 40.8724 26.0213 40.2538 25.424C39.6351 24.8053 39.3684 24.08 39.4537 23.248C39.4537 23.0347 39.5604 22.928 39.7737 22.928C39.8591 22.928 39.9444 22.9707 40.0297 23.056C40.0938 23.12 40.1151 23.2053 40.0938 23.312C40.0511 23.8667 40.2644 24.4107 40.7338 24.944C41.2244 25.456 41.8431 25.712 42.5898 25.712C43.0804 25.712 43.6031 25.5627 44.1578 25.264C44.7124 24.9653 45.2671 24.464 45.8218 23.76C45.8218 23.76 45.8858 23.6747 46.0138 23.504C46.1631 23.3333 46.3231 23.152 46.4938 22.96C46.6644 22.7467 46.7818 22.576 46.8458 22.448C46.9098 22.32 46.9951 22.256 47.1018 22.256C47.2084 22.256 47.2938 22.3093 47.3578 22.416C47.4431 22.5013 47.4538 22.608 47.3898 22.736C47.2618 22.992 47.0911 23.2373 46.8778 23.472C46.6644 23.7067 46.4724 23.9413 46.3018 24.176C45.7044 24.944 45.0751 25.4987 44.4138 25.84C43.7738 26.16 43.1551 26.32 42.5578 26.32ZM58.7425 13.712C58.6145 13.712 58.5078 13.6587 58.4225 13.552C58.3585 13.424 58.3798 13.296 58.4865 13.168L60.7585 10.704C60.8652 10.5973 60.9185 10.4587 60.9185 10.288C60.9185 10.096 60.8225 9.92533 60.6305 9.776C60.4598 9.62667 60.2572 9.552 60.0225 9.552C59.8092 9.552 59.5852 9.648 59.3505 9.84C59.0945 10.0533 58.6998 10.4587 58.1665 11.056C57.6332 11.6533 57.0252 12.368 56.3425 13.2C56.3425 13.2213 56.3105 13.2533 56.2465 13.296C56.1825 13.3173 56.1398 13.328 56.1185 13.328H53.5905C53.3772 13.328 53.2705 13.2213 53.2705 13.008C53.2705 12.7947 53.3772 12.688 53.5905 12.688H55.9585C56.5985 11.8773 57.1852 11.184 57.7185 10.608C58.2518 10.0107 58.6465 9.59467 58.9025 9.36C59.2225 9.06133 59.5958 8.912 60.0225 8.912C60.4492 8.912 60.8118 9.05067 61.1105 9.328C61.4092 9.584 61.5585 9.89333 61.5585 10.256C61.5585 10.576 61.4518 10.8533 61.2385 11.088C61.1958 11.152 61.0465 11.3227 60.7905 11.6C60.5558 11.8773 60.2678 12.1973 59.9265 12.56C59.5852 12.9227 59.2652 13.2747 58.9665 13.616C58.9025 13.68 58.8278 13.712 58.7425 13.712ZM51.0305 20.144C50.8385 20.144 50.7425 20.048 50.7425 19.856C50.7425 19.792 50.7958 19.6853 50.9025 19.536C51.4572 18.8533 52.0972 18.0427 52.8225 17.104C53.5478 16.1653 54.2732 15.184 54.9985 14.16C55.0625 14.0747 55.1372 14.032 55.2225 14.032C55.3505 14.032 55.4465 14.096 55.5105 14.224C55.5958 14.3307 55.5958 14.4373 55.5105 14.544C54.7852 15.568 54.0598 16.56 53.3345 17.52C52.6092 18.4587 51.9372 19.2907 51.3185 20.016C51.2332 20.1013 51.1372 20.144 51.0305 20.144ZM54.6145 24.112C53.8252 24.112 53.2385 23.8027 52.8545 23.184C52.7692 23.0133 52.6945 22.8427 52.6305 22.672C52.5665 22.48 52.5345 22.2773 52.5345 22.064C52.5345 21.7013 52.6198 21.2853 52.7905 20.816C52.9825 20.3253 53.2812 19.8027 53.6865 19.248C53.9212 18.9067 54.2625 18.4693 54.7105 17.936C55.1585 17.3813 55.6278 16.8053 56.1185 16.208C56.6305 15.5893 57.0678 15.024 57.4305 14.512C57.4305 14.4907 57.4625 14.4693 57.5265 14.448C57.6118 14.4053 57.6652 14.384 57.6865 14.384H60.4385C60.6518 14.384 60.7585 14.4907 60.7585 14.704C60.7585 14.9173 60.6518 15.024 60.4385 15.024H57.8465C57.4838 15.536 57.0572 16.0907 56.5665 16.688C56.0972 17.264 55.6385 17.8187 55.1905 18.352C54.7638 18.8853 54.4332 19.312 54.1985 19.632C53.8358 20.1653 53.5798 20.6347 53.4305 21.04C53.2812 21.424 53.2065 21.7653 53.2065 22.064C53.2065 22.384 53.2705 22.64 53.3985 22.832C53.6545 23.2587 54.0598 23.472 54.6145 23.472C55.1692 23.472 55.7345 23.2907 56.3105 22.928C56.9078 22.544 57.4945 22.064 58.0705 21.488C58.6465 20.8907 59.1692 20.272 59.6385 19.632C59.7025 19.5467 59.7878 19.504 59.8945 19.504C60.0012 19.504 60.0972 19.5573 60.1825 19.664C60.2678 19.7707 60.2572 19.888 60.1505 20.016C59.3612 21.1253 58.4652 22.0853 57.4625 22.896C56.4598 23.7067 55.5105 24.112 54.6145 24.112ZM53.5905 26.032C52.7585 26.032 52.0865 25.7973 51.5745 25.328C51.0838 24.8373 50.8598 24.144 50.9025 23.248C50.9025 23.056 51.0092 22.96 51.2225 22.96C51.3078 22.96 51.3825 22.992 51.4465 23.056C51.5318 23.0987 51.5638 23.1733 51.5425 23.28C51.5212 23.8773 51.6918 24.3893 52.0545 24.816C52.4385 25.2213 52.9932 25.424 53.7185 25.424C54.2305 25.424 54.8172 25.296 55.4785 25.04C56.1612 24.7627 56.8972 24.3253 57.6865 23.728C57.7292 23.6853 57.7932 23.664 57.8785 23.664C58.0918 23.664 58.1985 23.7707 58.1985 23.984C58.1985 24.0907 58.1558 24.176 58.0705 24.24C57.2812 24.8373 56.4918 25.2853 55.7025 25.584C54.9345 25.8827 54.2305 26.032 53.5905 26.032ZM63.9062 21.072C63.5223 21.072 63.1916 20.9867 62.9143 20.816C62.7863 20.752 62.7223 20.6667 62.7223 20.56C62.7223 20.4533 62.7649 20.368 62.8503 20.304C62.9569 20.2187 63.0743 20.208 63.2023 20.272C63.4583 20.3787 63.6929 20.432 63.9062 20.432C64.3543 20.432 64.8449 20.304 65.3783 20.048C65.9116 19.7707 66.4236 19.4187 66.9143 18.992C67.4049 18.5653 67.7996 18.1067 68.0983 17.616C68.4183 17.1253 68.5783 16.656 68.5783 16.208C68.5783 15.3333 68.1303 14.896 67.2343 14.896C66.2316 14.896 65.2929 15.1627 64.4183 15.696C63.5649 16.208 62.7756 16.8587 62.0503 17.648C61.3463 18.416 60.7169 19.2053 60.1623 20.016C60.0983 20.1227 60.0129 20.176 59.9062 20.176C59.7996 20.176 59.7142 20.1227 59.6502 20.016C59.5649 19.9093 59.5649 19.792 59.6502 19.664C60.2049 18.8533 60.8556 18.032 61.6023 17.2C62.3489 16.368 63.1916 15.6747 64.1302 15.12C65.0903 14.544 66.1249 14.256 67.2343 14.256C67.8103 14.256 68.2796 14.4267 68.6423 14.768C69.0263 15.1093 69.2183 15.5893 69.2183 16.208C69.2183 16.784 69.0369 17.36 68.6743 17.936C68.3329 18.4907 67.8849 19.0133 67.3303 19.504C66.7969 19.9733 66.2209 20.3573 65.6023 20.656C64.9836 20.9333 64.4183 21.072 63.9062 21.072ZM63.1703 24.048C62.5943 24.048 62.0609 23.8987 61.5703 23.6C61.1009 23.3013 60.8663 22.7893 60.8663 22.064C60.8663 21.4667 61.0796 20.8267 61.5063 20.144C61.9543 19.4613 62.4983 18.8107 63.1383 18.192C63.7996 17.552 64.4716 16.9973 65.1543 16.528C65.8369 16.0587 66.4236 15.7493 66.9143 15.6C66.9356 15.6 66.9463 15.6 66.9463 15.6C66.9676 15.5787 66.9889 15.568 67.0103 15.568C67.2236 15.568 67.3303 15.6853 67.3303 15.92C67.3303 16.048 67.2556 16.144 67.1063 16.208C66.6369 16.3573 66.0823 16.656 65.4423 17.104C64.8236 17.552 64.2049 18.0747 63.5863 18.672C62.9889 19.248 62.4876 19.8347 62.0823 20.432C61.6983 21.0293 61.5063 21.5733 61.5063 22.064C61.5063 22.5333 61.6556 22.8747 61.9543 23.088C62.2743 23.3013 62.6796 23.408 63.1703 23.408C64.4289 23.408 65.6983 23.0773 66.9783 22.416C68.2796 21.7333 69.3889 20.7947 70.3063 19.6C70.3703 19.5147 70.4449 19.472 70.5303 19.472C70.6583 19.472 70.7543 19.536 70.8183 19.664C70.9036 19.7707 70.8929 19.888 70.7863 20.016C69.8263 21.2533 68.6529 22.2347 67.2663 22.96C65.9009 23.6853 64.5356 24.048 63.1703 24.048ZM63.0103 25.968C62.4556 25.968 61.8903 25.8827 61.3143 25.712C60.7383 25.5413 60.2583 25.264 59.8742 24.88C59.4689 24.4747 59.2662 23.9413 59.2662 23.28C59.2662 23.0453 59.3729 22.928 59.5862 22.928C59.7996 22.928 59.9062 23.0453 59.9062 23.28C59.9062 23.6853 59.9809 24.0053 60.1303 24.24C60.3009 24.4747 60.5889 24.688 60.9943 24.88C61.3143 25.0293 61.6556 25.1467 62.0182 25.232C62.4023 25.296 62.7329 25.328 63.0103 25.328C63.7996 25.328 64.5676 25.1787 65.3143 24.88C66.0823 24.5813 66.7863 24.1973 67.4263 23.728C67.4689 23.6853 67.5329 23.664 67.6183 23.664C67.8316 23.664 67.9383 23.7707 67.9383 23.984C67.9383 24.0907 67.8956 24.176 67.8103 24.24C67.1276 24.752 66.3703 25.168 65.5383 25.488C64.7276 25.808 63.8849 25.968 63.0103 25.968ZM70.5312 20.176C70.4246 20.176 70.3392 20.112 70.2752 19.984C70.1899 19.856 70.1899 19.7387 70.2752 19.632C70.7019 19.1413 71.0966 18.6293 71.4593 18.096C71.8219 17.5627 72.1739 17.0293 72.5153 16.496C73.0913 15.6427 73.7206 14.7253 74.4033 13.744C75.1073 12.7627 75.8539 11.792 76.6433 10.832C77.4539 9.872 78.2859 8.99733 79.1393 8.208C79.9926 7.39733 80.8566 6.74667 81.7313 6.256C82.4779 5.85067 83.1286 5.648 83.6833 5.648C84.2379 5.648 84.6539 5.82933 84.9313 6.192C85.2299 6.53333 85.3793 6.98133 85.3793 7.536C85.3793 7.792 85.3473 8.05867 85.2833 8.336C85.2406 8.592 85.1553 8.86933 85.0273 9.168C84.9633 9.31733 84.7179 9.648 84.2913 10.16C83.8859 10.6507 83.3739 11.2587 82.7553 11.984C82.1366 12.688 81.4753 13.424 80.7713 14.192C80.0886 14.96 79.4273 15.696 78.7873 16.4C78.1473 17.104 77.5926 17.6907 77.1233 18.16C76.6753 18.6293 76.3873 18.9173 76.2593 19.024C76.1953 19.088 76.1313 19.12 76.0673 19.12C75.8326 19.12 75.7153 18.992 75.7153 18.736C75.7153 18.672 75.7579 18.5973 75.8433 18.512C75.9713 18.4053 76.2593 18.1173 76.7073 17.648C77.1553 17.1787 77.6993 16.6027 78.3393 15.92C78.9793 15.2373 79.6406 14.5227 80.3233 13.776C81.0059 13.008 81.6459 12.2827 82.2433 11.6C82.8619 10.896 83.3739 10.2987 83.7793 9.808C84.1846 9.31733 84.4086 9.01867 84.4513 8.912C84.6646 8.42133 84.7713 7.952 84.7713 7.504C84.7713 7.14133 84.6753 6.85333 84.4833 6.64C84.3126 6.40533 84.0459 6.288 83.6833 6.288C83.2353 6.288 82.6913 6.46933 82.0513 6.832C81.2193 7.30133 80.3873 7.93067 79.5553 8.72C78.7233 9.488 77.9126 10.352 77.1233 11.312C76.3339 12.2507 75.5979 13.2 74.9153 14.16C74.2326 15.12 73.6139 16.016 73.0593 16.848C72.6966 17.3813 72.3339 17.9253 71.9713 18.48C71.6086 19.0347 71.2139 19.5573 70.7873 20.048C70.7233 20.1333 70.6379 20.176 70.5312 20.176ZM73.8273 24.016C73.1659 24.016 72.6966 23.8773 72.4193 23.6C72.1633 23.3227 72.0353 22.9813 72.0353 22.576C72.0353 22.1493 72.1313 21.6907 72.3233 21.2C72.5366 20.688 72.7499 20.2507 72.9633 19.888C73.2833 19.3333 73.7206 18.672 74.2753 17.904C74.8299 17.136 75.4379 16.336 76.0993 15.504C76.7819 14.6507 77.4646 13.8293 78.1473 13.04C78.8513 12.2507 79.5126 11.5573 80.1313 10.96C80.7499 10.3413 81.2619 9.88267 81.6673 9.584C81.7099 9.54133 81.7739 9.52 81.8593 9.52C82.0726 9.52 82.1793 9.62667 82.1793 9.84C82.1793 9.94667 82.1366 10.032 82.0513 10.096C81.6459 10.3733 81.1446 10.8107 80.5473 11.408C79.9499 12.0053 79.3099 12.6987 78.6273 13.488C77.9446 14.256 77.2619 15.056 76.5793 15.888C75.9179 16.72 75.3099 17.5093 74.7552 18.256C74.2219 19.0027 73.8059 19.6533 73.5073 20.208C73.3579 20.4853 73.1766 20.8373 72.9633 21.264C72.7499 21.6907 72.6432 22.0853 72.6432 22.448C72.6432 22.7253 72.7286 22.9493 72.8993 23.12C73.0699 23.2907 73.3793 23.376 73.8273 23.376C74.4033 23.376 75.0646 23.2373 75.8113 22.96C76.5793 22.6827 77.3579 22.2667 78.1473 21.712C78.9366 21.136 79.6619 20.432 80.3233 19.6C80.3873 19.5147 80.4619 19.472 80.5473 19.472C80.6753 19.472 80.7713 19.536 80.8353 19.664C80.9206 19.7707 80.9099 19.888 80.8033 20.016C80.1206 20.8907 79.3633 21.6267 78.5312 22.224C77.6993 22.8213 76.8673 23.2693 76.0353 23.568C75.2246 23.8667 74.4886 24.016 73.8273 24.016ZM73.5393 26C72.4726 26 71.5659 25.776 70.8193 25.328C70.0939 24.8587 69.7312 24.176 69.7312 23.28C69.7312 23.0453 69.8379 22.928 70.0512 22.928C70.2646 22.928 70.3712 23.0453 70.3712 23.28C70.3712 23.8773 70.6806 24.3787 71.2993 24.784C71.9393 25.168 72.7499 25.36 73.7313 25.36C74.5419 25.36 75.4273 25.1893 76.3873 24.848C77.3686 24.5067 78.3286 23.9413 79.2673 23.152C79.3099 23.1093 79.3739 23.088 79.4593 23.088C79.6726 23.088 79.7793 23.1947 79.7793 23.408C79.7793 23.5147 79.7366 23.6 79.6513 23.664C78.7339 24.4533 77.7313 25.04 76.6433 25.424C75.5553 25.808 74.5206 26 73.5393 26ZM120.956 23.76C120.274 23.76 119.794 23.6 119.516 23.28C119.239 22.9387 119.1 22.5227 119.1 22.032C119.1 21.456 119.218 20.8373 119.452 20.176C119.708 19.5147 119.986 18.896 120.284 18.32C120.583 17.744 120.818 17.3173 120.988 17.04C121.458 16.2293 122.076 15.248 122.844 14.096C123.612 12.944 124.476 11.7493 125.436 10.512C126.418 9.25333 127.452 8.06933 128.54 6.96C129.628 5.82933 130.716 4.89067 131.804 4.144C132.914 3.376 133.991 2.91733 135.036 2.768C135.591 2.68267 135.868 2.448 135.868 2.064C135.868 1.872 135.772 1.70133 135.58 1.552C135.41 1.40267 135.164 1.34933 134.844 1.392C134.46 1.456 133.906 1.584 133.18 1.776C132.455 1.968 131.687 2.34133 130.876 2.896C129.49 3.83467 127.964 5.2 126.3 6.992C124.636 8.784 122.93 10.9173 121.18 13.392C121.116 13.4773 121.042 13.52 120.956 13.52C120.828 13.52 120.722 13.4667 120.636 13.36C120.572 13.2533 120.583 13.136 120.668 13.008C122.418 10.5333 124.135 8.38933 125.82 6.576C127.506 4.74133 129.063 3.344 130.492 2.384C130.684 2.256 131.036 2.064 131.548 1.808C132.06 1.53067 132.626 1.28533 133.244 1.072C133.884 0.858665 134.471 0.751999 135.004 0.751999C135.367 0.751999 135.676 0.837332 135.932 1.008C136.21 1.15733 136.391 1.43467 136.476 1.84C136.54 2.18133 136.455 2.512 136.22 2.832C135.986 3.13067 135.612 3.32267 135.1 3.408C134.14 3.536 133.138 3.96267 132.092 4.688C131.047 5.41333 130.002 6.32 128.956 7.408C127.911 8.496 126.908 9.648 125.948 10.864C125.01 12.08 124.156 13.264 123.388 14.416C122.642 15.5467 122.023 16.528 121.532 17.36C121.404 17.5733 121.191 17.9467 120.892 18.48C120.615 19.0133 120.348 19.6 120.092 20.24C119.858 20.8587 119.74 21.424 119.74 21.936C119.74 22.2773 119.826 22.5653 119.996 22.8C120.188 23.0133 120.508 23.12 120.956 23.12C121.554 23.12 122.215 22.992 122.94 22.736C123.687 22.4587 124.412 22.064 125.116 21.552C125.842 21.0187 126.471 20.3787 127.004 19.632C127.068 19.5467 127.143 19.504 127.228 19.504C127.335 19.504 127.42 19.568 127.484 19.696C127.57 19.8027 127.58 19.9093 127.516 20.016C126.962 20.8053 126.3 21.4773 125.532 22.032C124.786 22.5867 124.007 23.0133 123.196 23.312C122.407 23.6107 121.66 23.76 120.956 23.76ZM97.1803 27.632C95.4523 27.7813 93.8523 27.6427 92.3802 27.216C90.9083 26.7893 89.7243 26.0853 88.8283 25.104C87.9322 24.1013 87.4842 22.8427 87.4842 21.328C87.4842 20.048 87.8362 18.896 88.5403 17.872C89.2443 16.8267 90.1829 15.9413 91.3563 15.216C92.5296 14.4693 93.8203 13.904 95.2283 13.52C96.6576 13.1147 98.0869 12.912 99.5163 12.912C100.263 12.912 101.084 12.9653 101.98 13.072C102.898 13.1787 103.783 13.36 104.636 13.616C105.49 13.8507 106.204 14.2027 106.78 14.672C107.378 15.12 107.73 15.696 107.836 16.4C107.879 16.6987 107.836 16.9547 107.708 17.168C107.58 17.3813 107.388 17.488 107.132 17.488C106.962 17.488 106.802 17.4453 106.652 17.36C106.29 17.168 105.938 16.9653 105.596 16.752C105.255 16.5173 104.892 16.304 104.508 16.112C103.975 15.8347 103.324 15.5893 102.556 15.376C101.81 15.1413 100.946 15.024 99.9643 15.024C98.8549 15.024 97.7243 15.1733 96.5723 15.472C95.4203 15.7707 94.3643 16.1973 93.4043 16.752C92.4656 17.3067 91.6976 17.9787 91.1003 18.768C90.5243 19.5573 90.2363 20.4427 90.2363 21.424C90.2363 22.448 90.5563 23.2587 91.1963 23.856C91.8576 24.4533 92.7003 24.8693 93.7243 25.104C94.7696 25.3173 95.8683 25.3813 97.0203 25.296C98.1083 25.1893 99.2496 24.7733 100.444 24.048C101.66 23.3227 102.887 22.384 104.124 21.232C105.362 20.0587 106.578 18.7893 107.772 17.424C108.988 16.0373 110.14 14.64 111.228 13.232C112.316 11.8027 113.298 10.4587 114.172 9.2C115.047 7.92 115.772 6.84267 116.348 5.968C115.623 5.54133 114.727 5.18933 113.66 4.912C112.615 4.63467 111.474 4.432 110.236 4.304C108.999 4.15466 107.74 4.08 106.46 4.08C104.583 4.08 102.78 4.24 101.052 4.56C99.3243 4.88 97.9483 5.38133 96.9243 6.064C96.3909 6.42667 95.8896 6.91733 95.4203 7.536C94.9509 8.13333 94.7163 8.74133 94.7163 9.36C94.7163 9.76533 94.6096 10.0853 94.3963 10.32C94.2043 10.5333 93.9803 10.64 93.7243 10.64C93.4469 10.64 93.1909 10.4907 92.9563 10.192C92.7216 9.872 92.6043 9.38133 92.6043 8.72C92.6043 8.03733 92.7643 7.39733 93.0843 6.8C93.4256 6.20267 93.8523 5.66933 94.3643 5.2C94.8976 4.73067 95.4416 4.336 95.9963 4.016C96.8496 3.52533 97.8096 3.14133 98.8763 2.864C99.9643 2.56533 101.063 2.34133 102.172 2.192C103.303 2.04267 104.359 1.94667 105.34 1.904C106.343 1.86133 107.175 1.84 107.836 1.84C108.668 1.84 109.671 1.89333 110.844 2C112.018 2.10666 113.223 2.27733 114.46 2.512C115.719 2.74667 116.914 3.04533 118.044 3.408C119.175 3.77067 120.103 4.208 120.828 4.72C121.17 4.95467 121.458 5.22133 121.692 5.52C121.927 5.81867 122.044 6.14933 122.044 6.512C122.044 6.576 122.034 6.64 122.012 6.704C122.012 6.768 122.002 6.832 121.98 6.896C121.874 7.30133 121.703 7.58933 121.468 7.76C121.234 7.93067 120.967 8.016 120.668 8.016C120.391 8.016 120.092 7.952 119.772 7.824C119.474 7.696 119.196 7.54667 118.94 7.376C118.748 7.696 118.418 8.21867 117.948 8.944C117.479 9.66933 116.956 10.4693 116.38 11.344C115.826 12.1973 115.282 12.9973 114.748 13.744H119.996C120.21 13.744 120.316 13.8507 120.316 14.064C120.316 14.2773 120.21 14.384 119.996 14.384H114.14C113.991 14.384 113.884 14.3307 113.82 14.224C113.778 14.1173 113.799 14 113.884 13.872C114.354 13.2107 114.855 12.4747 115.388 11.664C115.943 10.8533 116.455 10.0747 116.924 9.328C117.415 8.58133 117.81 7.97333 118.108 7.504C118.428 7.01333 118.588 6.768 118.588 6.768C118.652 6.68267 118.738 6.64 118.844 6.64C119.015 6.64 119.239 6.74667 119.516 6.96C119.815 7.17333 120.124 7.30133 120.444 7.344C120.487 7.344 120.519 7.35467 120.54 7.376C120.583 7.376 120.615 7.376 120.636 7.376C121.02 7.376 121.266 7.16267 121.372 6.736C121.479 6.37333 121.362 6.032 121.02 5.712C120.679 5.37067 120.242 5.072 119.708 4.816C119.196 4.56 118.695 4.34667 118.204 4.176C117.714 4.00533 117.362 3.888 117.148 3.824C115.783 3.39733 114.258 3.06667 112.572 2.832C110.887 2.59733 109.308 2.48 107.836 2.48C107.154 2.48 106.322 2.50133 105.34 2.544C104.38 2.58667 103.356 2.68267 102.268 2.832C101.202 2.96 100.146 3.17333 99.1003 3.472C98.0549 3.74933 97.1269 4.12267 96.3163 4.592C95.5056 5.06133 94.7909 5.65867 94.1723 6.384C93.5536 7.088 93.2443 7.86667 93.2443 8.72C93.2443 9.168 93.2976 9.49867 93.4043 9.712C93.5109 9.904 93.6176 10 93.7243 10C93.9589 10 94.0763 9.78667 94.0763 9.36C94.0763 8.54933 94.3429 7.80267 94.8763 7.12C95.4309 6.43733 95.9856 5.91467 96.5403 5.552C97.6283 4.82667 99.0683 4.29333 100.86 3.952C102.674 3.61067 104.551 3.44 106.492 3.44C107.858 3.44 109.202 3.52533 110.524 3.696C111.847 3.84533 113.063 4.08 114.172 4.4C115.303 4.72 116.231 5.12533 116.956 5.616C117.042 5.63733 117.084 5.70133 117.084 5.808C117.106 5.89333 117.095 5.97867 117.052 6.064C116.455 6.98133 115.698 8.09067 114.78 9.392C113.884 10.6933 112.882 12.0693 111.772 13.52C110.684 14.9707 109.522 16.4107 108.284 17.84C107.047 19.248 105.778 20.5493 104.476 21.744C103.196 22.9387 101.927 23.9093 100.668 24.656C99.4096 25.4027 98.2043 25.8293 97.0523 25.936C95.7296 26.0427 94.5029 25.9573 93.3723 25.68C92.2416 25.4027 91.3243 24.912 90.6203 24.208C89.9376 23.504 89.5963 22.5867 89.5963 21.456C89.5963 20.368 89.9056 19.3867 90.5243 18.512C91.1429 17.6373 91.9643 16.9013 92.9883 16.304C94.0123 15.6853 95.1323 15.216 96.3483 14.896C97.5643 14.5547 98.7696 14.384 99.9643 14.384C101.202 14.384 102.332 14.5653 103.356 14.928C104.38 15.2907 105.415 15.8133 106.46 16.496C106.567 16.56 106.674 16.624 106.78 16.688C106.887 16.752 106.994 16.8053 107.1 16.848C107.164 16.848 107.196 16.7947 107.196 16.688C107.196 16.5813 107.196 16.5173 107.196 16.496C107.111 15.8987 106.791 15.4187 106.236 15.056C105.682 14.672 104.999 14.3733 104.188 14.16C103.378 13.9467 102.546 13.7973 101.692 13.712C100.86 13.6267 100.114 13.584 99.4523 13.584C98.0443 13.584 96.6683 13.776 95.3243 14.16C93.9803 14.5227 92.7643 15.056 91.6763 15.76C90.5883 16.4427 89.7136 17.264 89.0523 18.224C88.4123 19.1627 88.0922 20.208 88.0922 21.36C88.0922 22.7467 88.5189 23.8773 89.3723 24.752C90.2256 25.6267 91.3349 26.2453 92.7003 26.608C94.0869 26.992 95.5589 27.12 97.1163 26.992C98.2043 26.9067 99.3243 26.5867 100.476 26.032C101.628 25.4773 102.77 24.7947 103.9 23.984C105.031 23.152 106.098 22.2667 107.1 21.328C108.124 20.3893 109.031 19.472 109.82 18.576C110.631 17.68 111.292 16.8907 111.804 16.208C111.868 16.1227 111.954 16.08 112.06 16.08C112.167 16.08 112.263 16.1333 112.348 16.24C112.434 16.3467 112.423 16.464 112.316 16.592C111.804 17.2533 111.132 18.0427 110.3 18.96C109.49 19.8773 108.562 20.8267 107.516 21.808C106.492 22.768 105.394 23.6747 104.22 24.528C103.068 25.36 101.884 26.0533 100.668 26.608C99.4736 27.184 98.3109 27.5253 97.1803 27.632ZM119.612 26.16C118.311 26.16 117.404 25.8507 116.892 25.232C116.38 24.592 116.124 23.8133 116.124 22.896C116.124 22.192 116.231 21.456 116.444 20.688C116.658 19.92 116.914 19.1947 117.212 18.512C117.532 17.808 117.82 17.2213 118.076 16.752H113.884C113.671 16.752 113.564 16.6453 113.564 16.432C113.564 16.2187 113.671 16.112 113.884 16.112L118.652 16.144C118.823 16.144 118.93 16.1973 118.972 16.304C119.015 16.3893 118.994 16.496 118.908 16.624C118.631 17.0293 118.322 17.584 117.98 18.288C117.639 18.992 117.34 19.7387 117.084 20.528C116.85 21.3173 116.732 22.064 116.732 22.768C116.732 23.5573 116.935 24.2187 117.34 24.752C117.767 25.264 118.524 25.52 119.612 25.52C120.402 25.52 121.202 25.3387 122.012 24.976C122.823 24.6133 123.602 24.1867 124.348 23.696C124.434 23.6533 124.487 23.632 124.508 23.632C124.615 23.632 124.69 23.6747 124.732 23.76C124.796 23.824 124.828 23.8987 124.828 23.984C124.828 24.0907 124.786 24.176 124.7 24.24C123.932 24.7307 123.111 25.1787 122.236 25.584C121.362 25.968 120.487 26.16 119.612 26.16ZM131.25 21.072C130.866 21.072 130.535 20.9867 130.258 20.816C130.13 20.752 130.066 20.6667 130.066 20.56C130.066 20.4533 130.109 20.368 130.194 20.304C130.301 20.2187 130.418 20.208 130.546 20.272C130.802 20.3787 131.037 20.432 131.25 20.432C131.698 20.432 132.189 20.304 132.722 20.048C133.255 19.7707 133.767 19.4187 134.258 18.992C134.749 18.5653 135.143 18.1067 135.442 17.616C135.762 17.1253 135.922 16.656 135.922 16.208C135.922 15.3333 135.474 14.896 134.578 14.896C133.575 14.896 132.637 15.1627 131.762 15.696C130.909 16.208 130.119 16.8587 129.394 17.648C128.69 18.416 128.061 19.2053 127.506 20.016C127.442 20.1227 127.357 20.176 127.25 20.176C127.143 20.176 127.058 20.1227 126.994 20.016C126.909 19.9093 126.909 19.792 126.994 19.664C127.549 18.8533 128.199 18.032 128.946 17.2C129.693 16.368 130.535 15.6747 131.474 15.12C132.434 14.544 133.469 14.256 134.578 14.256C135.154 14.256 135.623 14.4267 135.986 14.768C136.37 15.1093 136.562 15.5893 136.562 16.208C136.562 16.784 136.381 17.36 136.018 17.936C135.677 18.4907 135.229 19.0133 134.674 19.504C134.141 19.9733 133.565 20.3573 132.946 20.656C132.327 20.9333 131.762 21.072 131.25 21.072ZM130.514 24.048C129.938 24.048 129.405 23.8987 128.914 23.6C128.445 23.3013 128.21 22.7893 128.21 22.064C128.21 21.4667 128.423 20.8267 128.85 20.144C129.298 19.4613 129.842 18.8107 130.482 18.192C131.143 17.552 131.815 16.9973 132.498 16.528C133.181 16.0587 133.767 15.7493 134.258 15.6C134.279 15.6 134.29 15.6 134.29 15.6C134.311 15.5787 134.333 15.568 134.354 15.568C134.567 15.568 134.674 15.6853 134.674 15.92C134.674 16.048 134.599 16.144 134.45 16.208C133.981 16.3573 133.426 16.656 132.786 17.104C132.167 17.552 131.549 18.0747 130.93 18.672C130.333 19.248 129.831 19.8347 129.426 20.432C129.042 21.0293 128.85 21.5733 128.85 22.064C128.85 22.5333 128.999 22.8747 129.298 23.088C129.618 23.3013 130.023 23.408 130.514 23.408C131.773 23.408 133.042 23.0773 134.322 22.416C135.623 21.7333 136.733 20.7947 137.65 19.6C137.714 19.5147 137.789 19.472 137.874 19.472C138.002 19.472 138.098 19.536 138.162 19.664C138.247 19.7707 138.237 19.888 138.13 20.016C137.17 21.2533 135.997 22.2347 134.61 22.96C133.245 23.6853 131.879 24.048 130.514 24.048ZM130.354 25.968C129.799 25.968 129.234 25.8827 128.658 25.712C128.082 25.5413 127.602 25.264 127.218 24.88C126.813 24.4747 126.61 23.9413 126.61 23.28C126.61 23.0453 126.717 22.928 126.93 22.928C127.143 22.928 127.25 23.0453 127.25 23.28C127.25 23.6853 127.325 24.0053 127.474 24.24C127.645 24.4747 127.933 24.688 128.338 24.88C128.658 25.0293 128.999 25.1467 129.362 25.232C129.746 25.296 130.077 25.328 130.354 25.328C131.143 25.328 131.911 25.1787 132.658 24.88C133.426 24.5813 134.13 24.1973 134.77 23.728C134.813 23.6853 134.877 23.664 134.962 23.664C135.175 23.664 135.282 23.7707 135.282 23.984C135.282 24.0907 135.239 24.176 135.154 24.24C134.471 24.752 133.714 25.168 132.882 25.488C132.071 25.808 131.229 25.968 130.354 25.968ZM140.307 24.112C139.795 24.112 139.454 23.9093 139.283 23.504C139.134 23.0773 139.059 22.7253 139.059 22.448C139.059 21.9147 139.24 21.2853 139.603 20.56C139.966 19.8347 140.435 19.12 141.011 18.416C141.587 17.712 142.206 17.1253 142.867 16.656C143.528 16.1867 144.158 15.952 144.755 15.952C145.054 15.952 145.203 16.0587 145.203 16.272C145.203 16.3573 145.171 16.4427 145.107 16.528C145.043 16.592 144.958 16.6133 144.851 16.592C144.382 16.5493 143.848 16.7413 143.251 17.168C142.675 17.5733 142.11 18.1067 141.555 18.768C141.022 19.408 140.574 20.0587 140.211 20.72C139.87 21.3813 139.699 21.9573 139.699 22.448C139.699 22.7467 139.752 22.992 139.859 23.184C139.966 23.376 140.115 23.472 140.307 23.472C140.67 23.472 141.086 23.2587 141.555 22.832C142.046 22.384 142.547 21.8293 143.059 21.168C143.571 20.4853 144.062 19.7813 144.531 19.056C145.022 18.3093 145.448 17.6373 145.811 17.04C146.195 16.4213 146.483 15.9627 146.675 15.664C147.08 15.0667 147.486 14.6507 147.891 14.416C148.296 14.16 148.67 14.032 149.011 14.032C149.395 14.032 149.704 14.1493 149.939 14.384C150.195 14.6187 150.323 14.9173 150.323 15.28C150.323 15.6 150.206 15.9413 149.971 16.304C149.8 16.56 149.523 16.9867 149.139 17.584C148.755 18.16 148.36 18.7893 147.955 19.472C147.55 20.1333 147.208 20.7413 146.931 21.296C146.632 21.936 146.483 22.448 146.483 22.832C146.483 23.2587 146.696 23.472 147.123 23.472C147.507 23.472 147.934 23.344 148.403 23.088C148.894 22.832 149.384 22.5013 149.875 22.096C150.366 21.6907 150.824 21.2747 151.251 20.848C151.678 20.4 152.03 19.9947 152.307 19.632C152.371 19.5467 152.446 19.504 152.531 19.504C152.659 19.504 152.755 19.568 152.819 19.696C152.904 19.8027 152.904 19.9093 152.819 20.016C152.542 20.4213 152.158 20.8587 151.667 21.328C151.198 21.7973 150.686 22.2453 150.131 22.672C149.576 23.0987 149.022 23.4507 148.467 23.728C147.912 23.984 147.422 24.112 146.995 24.112C146.59 24.112 146.291 23.9947 146.099 23.76C145.928 23.5253 145.843 23.2267 145.843 22.864C145.843 22.416 145.971 21.904 146.227 21.328C146.504 20.7307 146.846 20.08 147.251 19.376C147.678 18.6507 148.094 17.9787 148.499 17.36C148.926 16.72 149.246 16.24 149.459 15.92C149.608 15.7067 149.683 15.4933 149.683 15.28C149.683 14.8747 149.47 14.672 149.043 14.672C148.808 14.672 148.52 14.7787 148.179 14.992C147.859 15.2053 147.528 15.5573 147.187 16.048C146.718 16.752 146.195 17.5627 145.619 18.48C145.064 19.3973 144.499 20.2613 143.923 21.072C143.347 21.8613 142.75 22.5653 142.131 23.184C141.534 23.8027 140.926 24.112 140.307 24.112ZM137.875 20.176C137.768 20.176 137.683 20.1227 137.619 20.016C137.534 19.9093 137.534 19.792 137.619 19.664C137.982 19.152 138.398 18.5973 138.867 18C139.358 17.3813 139.902 16.8053 140.499 16.272C141.096 15.7173 141.736 15.2693 142.419 14.928C143.102 14.5653 143.816 14.384 144.563 14.384C144.798 14.384 145.032 14.416 145.267 14.48C145.502 14.5227 145.726 14.5867 145.939 14.672C146.067 14.736 146.131 14.832 146.131 14.96C146.131 15.0453 146.088 15.1307 146.003 15.216C145.918 15.28 145.811 15.2907 145.683 15.248C145.683 15.248 145.651 15.2373 145.587 15.216C145.523 15.1947 145.438 15.1733 145.331 15.152C145.224 15.1093 145.107 15.0773 144.979 15.056C144.851 15.0347 144.712 15.024 144.563 15.024C143.688 15.024 142.856 15.2907 142.067 15.824C141.278 16.3573 140.542 17.008 139.859 17.776C139.198 18.544 138.622 19.2907 138.131 20.016C138.067 20.1227 137.982 20.176 137.875 20.176ZM145.971 26.16C145.011 26.16 144.318 25.904 143.891 25.392C143.486 24.8587 143.283 24.2827 143.283 23.664C143.283 23.152 143.411 22.6613 143.667 22.192C143.731 22.0853 143.827 22.032 143.955 22.032C144.062 22.032 144.147 22.0853 144.211 22.192C144.296 22.2773 144.307 22.384 144.243 22.512C144.03 22.896 143.923 23.28 143.923 23.664C143.923 24.1333 144.083 24.56 144.403 24.944C144.723 25.328 145.246 25.52 145.971 25.52C146.782 25.52 147.55 25.3493 148.275 25.008C149.022 24.6453 149.726 24.2187 150.387 23.728C150.43 23.6853 150.494 23.664 150.579 23.664C150.792 23.664 150.899 23.7707 150.899 23.984C150.899 24.0907 150.856 24.176 150.771 24.24C150.088 24.752 149.352 25.2 148.563 25.584C147.774 25.968 146.91 26.16 145.971 26.16ZM139.859 26.128C139.155 26.128 138.526 25.8933 137.971 25.424C137.438 24.9547 137.192 24.2293 137.235 23.248C137.235 23.056 137.342 22.96 137.555 22.96C137.64 22.96 137.726 22.992 137.811 23.056C137.875 23.0987 137.896 23.1733 137.875 23.28C137.854 24.048 138.046 24.6133 138.451 24.976C138.856 25.3173 139.326 25.488 139.859 25.488C140.286 25.488 140.712 25.392 141.139 25.2C141.566 24.9867 141.918 24.688 142.195 24.304C142.259 24.2187 142.344 24.176 142.451 24.176C142.558 24.176 142.654 24.2293 142.739 24.336C142.824 24.4427 142.814 24.56 142.707 24.688C142.366 25.1573 141.939 25.52 141.427 25.776C140.915 26.0107 140.392 26.128 139.859 26.128ZM157.811 24.272C157.256 24.272 156.861 24.0907 156.627 23.728C156.413 23.344 156.307 22.8533 156.307 22.256C156.307 21.6587 156.392 20.9973 156.562 20.272C156.733 19.5467 156.936 18.8427 157.171 18.16C157.427 17.4773 157.661 16.8907 157.875 16.4C158.109 15.888 158.269 15.5573 158.355 15.408C158.547 15.088 158.643 14.7893 158.643 14.512C158.643 14.2347 158.557 14.0107 158.387 13.84C158.216 13.6693 157.992 13.584 157.715 13.584C157.437 13.584 157.117 13.7013 156.755 13.936C156.413 14.1707 156.093 14.5653 155.795 15.12C155.389 15.8453 154.941 16.656 154.451 17.552C153.981 18.448 153.437 19.2693 152.819 20.016C152.733 20.1013 152.637 20.144 152.53 20.144C152.424 20.144 152.338 20.0907 152.274 19.984C152.21 19.8773 152.221 19.76 152.306 19.632C152.925 18.8853 153.459 18.0747 153.907 17.2C154.376 16.3253 154.813 15.5253 155.219 14.8C155.603 14.1173 156.008 13.6373 156.435 13.36C156.883 13.0613 157.309 12.912 157.715 12.912C158.163 12.912 158.536 13.0613 158.835 13.36C159.133 13.6587 159.283 14.0427 159.283 14.512C159.283 14.896 159.155 15.3013 158.899 15.728C158.835 15.856 158.696 16.1653 158.483 16.656C158.269 17.1253 158.035 17.7013 157.779 18.384C157.544 19.0667 157.341 19.76 157.171 20.464C157 21.1467 156.915 21.7547 156.915 22.288C156.915 22.6933 156.979 23.024 157.107 23.28C157.256 23.5147 157.491 23.632 157.811 23.632C157.96 23.632 158.237 23.4933 158.643 23.216C159.069 22.9173 159.389 22.5973 159.603 22.256C159.667 22.1493 159.763 22.096 159.891 22.096C159.997 22.096 160.083 22.1493 160.147 22.256C160.232 22.3413 160.243 22.448 160.179 22.576C160.029 22.8533 159.805 23.12 159.507 23.376C159.208 23.632 158.899 23.8453 158.579 24.016C158.28 24.1867 158.024 24.272 157.811 24.272ZM162.899 22.832C161.896 22.832 161.203 22.5227 160.819 21.904C160.456 21.2853 160.275 20.5813 160.275 19.792C160.275 19.1733 160.349 18.5547 160.499 17.936C160.648 17.3173 160.829 16.7947 161.043 16.368C161.277 15.8773 161.565 15.504 161.907 15.248C162.269 14.9707 162.621 14.832 162.963 14.832C163.304 14.832 163.592 14.9707 163.827 15.248C164.061 15.5253 164.179 15.9627 164.179 16.56C164.179 16.7307 164.157 16.9227 164.115 17.136C164.093 17.3493 164.061 17.5733 164.019 17.808C163.891 18.384 163.709 18.9493 163.475 19.504C163.261 20.0587 163.048 20.5173 162.835 20.88C162.792 20.9867 162.696 21.04 162.547 21.04C162.44 21.04 162.344 20.9973 162.259 20.912C162.173 20.8053 162.173 20.688 162.259 20.56C162.451 20.24 162.653 19.8133 162.867 19.28C163.101 18.7467 163.283 18.2133 163.411 17.68C163.453 17.4453 163.485 17.232 163.507 17.04C163.549 16.848 163.571 16.6773 163.571 16.528C163.571 16.1653 163.507 15.8987 163.379 15.728C163.251 15.5573 163.101 15.472 162.931 15.472C162.717 15.472 162.483 15.5787 162.227 15.792C161.992 15.984 161.789 16.2613 161.619 16.624C161.448 16.9867 161.277 17.4667 161.107 18.064C160.957 18.64 160.883 19.216 160.883 19.792C160.883 20.432 161.021 20.9973 161.299 21.488C161.597 21.9573 162.131 22.192 162.899 22.192C163.283 22.192 163.72 22.064 164.211 21.808C164.701 21.5307 165.181 21.2 165.651 20.816C166.12 20.4107 166.525 20.016 166.867 19.632C166.931 19.5467 167.016 19.504 167.123 19.504C167.229 19.504 167.315 19.568 167.379 19.696C167.464 19.824 167.453 19.9413 167.347 20.048C167.005 20.4107 166.579 20.816 166.067 21.264C165.555 21.6907 165.021 22.064 164.467 22.384C163.912 22.6827 163.389 22.832 162.899 22.832ZM152.338 22.96C152.21 22.96 152.114 22.896 152.05 22.768C151.965 22.64 151.986 22.5227 152.114 22.416C152.925 21.6267 153.544 20.8907 153.971 20.208C154.419 19.5253 154.909 18.7147 155.443 17.776C155.507 17.6693 155.603 17.616 155.731 17.616C155.837 17.616 155.933 17.6693 156.019 17.776C156.104 17.8613 156.104 17.968 156.019 18.096C155.485 19.056 154.984 19.888 154.515 20.592C154.045 21.296 153.395 22.0533 152.562 22.864C152.498 22.928 152.424 22.96 152.338 22.96ZM156.947 26.128C156.243 26.128 155.667 25.9573 155.219 25.616C154.792 25.2747 154.483 24.8373 154.291 24.304C154.099 23.7707 154.013 23.2373 154.035 22.704C154.035 22.4907 154.141 22.384 154.355 22.384C154.568 22.384 154.674 22.4907 154.674 22.704C154.653 23.4507 154.824 24.1013 155.187 24.656C155.571 25.2107 156.157 25.488 156.947 25.488C157.757 25.488 158.472 25.2747 159.091 24.848C159.709 24.4 160.285 23.8453 160.819 23.184C160.883 23.0987 160.968 23.056 161.075 23.056C161.181 23.056 161.277 23.12 161.363 23.248C161.448 23.3547 161.437 23.4613 161.331 23.568C160.755 24.272 160.115 24.88 159.411 25.392C158.728 25.8827 157.907 26.128 156.947 26.128ZM171.125 21.072C170.741 21.072 170.41 20.9867 170.133 20.816C170.005 20.752 169.941 20.6667 169.941 20.56C169.941 20.4533 169.984 20.368 170.069 20.304C170.176 20.2187 170.293 20.208 170.421 20.272C170.677 20.3787 170.912 20.432 171.125 20.432C171.573 20.432 172.064 20.304 172.597 20.048C173.13 19.7707 173.642 19.4187 174.133 18.992C174.624 18.5653 175.018 18.1067 175.317 17.616C175.637 17.1253 175.797 16.656 175.797 16.208C175.797 15.3333 175.349 14.896 174.453 14.896C173.45 14.896 172.512 15.1627 171.637 15.696C170.784 16.208 169.994 16.8587 169.269 17.648C168.565 18.416 167.936 19.2053 167.381 20.016C167.317 20.1227 167.232 20.176 167.125 20.176C167.018 20.176 166.933 20.1227 166.869 20.016C166.784 19.9093 166.784 19.792 166.869 19.664C167.424 18.8533 168.074 18.032 168.821 17.2C169.568 16.368 170.41 15.6747 171.349 15.12C172.309 14.544 173.344 14.256 174.453 14.256C175.029 14.256 175.498 14.4267 175.861 14.768C176.245 15.1093 176.437 15.5893 176.437 16.208C176.437 16.784 176.256 17.36 175.893 17.936C175.552 18.4907 175.104 19.0133 174.549 19.504C174.016 19.9733 173.44 20.3573 172.821 20.656C172.202 20.9333 171.637 21.072 171.125 21.072ZM170.389 24.048C169.813 24.048 169.28 23.8987 168.789 23.6C168.32 23.3013 168.085 22.7893 168.085 22.064C168.085 21.4667 168.298 20.8267 168.725 20.144C169.173 19.4613 169.717 18.8107 170.357 18.192C171.018 17.552 171.69 16.9973 172.373 16.528C173.056 16.0587 173.642 15.7493 174.133 15.6C174.154 15.6 174.165 15.6 174.165 15.6C174.186 15.5787 174.208 15.568 174.229 15.568C174.442 15.568 174.549 15.6853 174.549 15.92C174.549 16.048 174.474 16.144 174.325 16.208C173.856 16.3573 173.301 16.656 172.661 17.104C172.042 17.552 171.424 18.0747 170.805 18.672C170.208 19.248 169.706 19.8347 169.301 20.432C168.917 21.0293 168.725 21.5733 168.725 22.064C168.725 22.5333 168.874 22.8747 169.173 23.088C169.493 23.3013 169.898 23.408 170.389 23.408C171.648 23.408 172.917 23.0773 174.197 22.416C175.498 21.7333 176.608 20.7947 177.525 19.6C177.589 19.5147 177.664 19.472 177.749 19.472C177.877 19.472 177.973 19.536 178.037 19.664C178.122 19.7707 178.112 19.888 178.005 20.016C177.045 21.2533 175.872 22.2347 174.485 22.96C173.12 23.6853 171.754 24.048 170.389 24.048ZM170.229 25.968C169.674 25.968 169.109 25.8827 168.533 25.712C167.957 25.5413 167.477 25.264 167.093 24.88C166.688 24.4747 166.485 23.9413 166.485 23.28C166.485 23.0453 166.592 22.928 166.805 22.928C167.018 22.928 167.125 23.0453 167.125 23.28C167.125 23.6853 167.2 24.0053 167.349 24.24C167.52 24.4747 167.808 24.688 168.213 24.88C168.533 25.0293 168.874 25.1467 169.237 25.232C169.621 25.296 169.952 25.328 170.229 25.328C171.018 25.328 171.786 25.1787 172.533 24.88C173.301 24.5813 174.005 24.1973 174.645 23.728C174.688 23.6853 174.752 23.664 174.837 23.664C175.05 23.664 175.157 23.7707 175.157 23.984C175.157 24.0907 175.114 24.176 175.029 24.24C174.346 24.752 173.589 25.168 172.757 25.488C171.946 25.808 171.104 25.968 170.229 25.968ZM177.75 20.176C177.643 20.176 177.558 20.112 177.494 19.984C177.409 19.856 177.409 19.7387 177.494 19.632C178.155 18.8853 178.721 18.224 179.19 17.648C179.681 17.0507 180.139 16.4533 180.566 15.856C181.014 15.2587 181.494 14.5973 182.006 13.872C182.241 13.552 182.507 13.328 182.806 13.2C183.105 13.0507 183.393 12.976 183.67 12.976C184.118 12.976 184.502 13.104 184.822 13.36C185.163 13.616 185.334 13.904 185.334 14.224C185.334 14.416 185.259 14.5973 185.11 14.768C185.046 14.832 184.971 14.864 184.886 14.864C184.779 14.864 184.683 14.8107 184.598 14.704C184.534 14.576 184.555 14.448 184.662 14.32C184.683 14.2987 184.694 14.256 184.694 14.192C184.694 14.128 184.662 14.0533 184.598 13.968C184.534 13.8827 184.385 13.7973 184.15 13.712C184.001 13.648 183.841 13.616 183.67 13.616C183.478 13.616 183.275 13.6693 183.062 13.776C182.87 13.8613 182.689 14.0213 182.518 14.256C181.985 14.9813 181.494 15.6427 181.046 16.24C180.619 16.8373 180.171 17.4347 179.702 18.032C179.233 18.6293 178.667 19.3013 178.006 20.048C177.942 20.1333 177.857 20.176 177.75 20.176ZM188.918 23.792C188.577 23.792 188.257 23.7173 187.958 23.568C187.681 23.3973 187.542 23.152 187.542 22.832C187.542 22.6187 187.595 22.416 187.702 22.224C187.851 21.9467 188.086 21.5307 188.406 20.976C188.726 20.4 189.057 19.8027 189.398 19.184C189.739 18.544 190.027 17.9573 190.262 17.424C190.497 16.8693 190.614 16.464 190.614 16.208C190.614 15.7173 190.401 15.344 189.974 15.088C189.569 14.832 189.099 14.704 188.566 14.704C187.734 14.704 186.955 14.9387 186.23 15.408C185.505 15.856 184.843 16.4 184.246 17.04C183.649 17.68 183.105 18.2987 182.614 18.896C182.55 18.9813 182.465 19.024 182.358 19.024C182.251 19.024 182.155 18.9707 182.07 18.864C182.006 18.736 182.017 18.6187 182.102 18.512C182.657 17.8507 183.254 17.1787 183.894 16.496C184.534 15.8133 185.238 15.2373 186.006 14.768C186.795 14.2987 187.649 14.064 188.566 14.064C188.95 14.064 189.345 14.1387 189.75 14.288C190.177 14.416 190.529 14.64 190.806 14.96C191.105 15.28 191.254 15.696 191.254 16.208C191.254 16.528 191.126 16.976 190.87 17.552C190.635 18.1067 190.347 18.7147 190.006 19.376C189.665 20.016 189.334 20.624 189.014 21.2C188.694 21.776 188.449 22.224 188.278 22.544C188.214 22.6293 188.182 22.7147 188.182 22.8C188.182 22.9493 188.267 23.0453 188.438 23.088C188.609 23.1307 188.769 23.152 188.918 23.152C189.409 23.152 189.921 22.9387 190.454 22.512C190.987 22.0853 191.489 21.5947 191.958 21.04C192.427 20.464 192.79 19.9947 193.046 19.632C193.11 19.5467 193.185 19.504 193.27 19.504C193.377 19.504 193.473 19.5573 193.558 19.664C193.665 19.7707 193.665 19.888 193.558 20.016C193.259 20.4427 192.854 20.9547 192.342 21.552C191.851 22.1493 191.307 22.672 190.71 23.12C190.113 23.568 189.515 23.792 188.918 23.792ZM178.806 26.096C178.358 26.096 178.027 25.9467 177.814 25.648C177.622 25.3493 177.526 25.0293 177.526 24.688C177.526 24.4107 177.643 24.0267 177.878 23.536C178.113 23.0453 178.39 22.5227 178.71 21.968C179.051 21.4133 179.371 20.8907 179.67 20.4C179.969 19.9093 180.193 19.5147 180.342 19.216C180.406 19.088 180.502 19.024 180.63 19.024C180.737 19.024 180.822 19.0667 180.886 19.152C180.971 19.2373 180.982 19.344 180.918 19.472C180.79 19.728 180.577 20.1013 180.278 20.592C180.001 21.0827 179.691 21.6053 179.35 22.16C179.03 22.7147 178.753 23.2267 178.518 23.696C178.283 24.144 178.166 24.4747 178.166 24.688C178.166 25.2 178.379 25.456 178.806 25.456C179.233 25.456 179.617 25.264 179.958 24.88C180.299 24.4747 180.641 23.952 180.982 23.312C181.323 22.672 181.707 21.9787 182.134 21.232C182.561 20.4853 183.062 19.7493 183.638 19.024C184.214 18.2773 184.907 17.616 185.718 17.04C186.529 16.4427 187.499 16.0053 188.63 15.728H188.726C188.939 15.728 189.046 15.8347 189.046 16.048C189.046 16.1973 188.961 16.2933 188.79 16.336C187.702 16.6133 186.763 17.04 185.974 17.616C185.206 18.192 184.545 18.8533 183.99 19.6C183.435 20.3253 182.945 21.072 182.518 21.84C182.113 22.608 181.729 23.312 181.366 23.952C181.003 24.592 180.619 25.1147 180.214 25.52C179.809 25.904 179.339 26.096 178.806 26.096ZM187.286 26.128C186.625 26.128 186.038 25.9253 185.526 25.52C185.035 25.1147 184.79 24.528 184.79 23.76C184.79 23.6747 184.79 23.6 184.79 23.536C184.79 23.4507 184.801 23.3653 184.822 23.28C184.886 22.7893 185.046 22.2347 185.302 21.616C185.579 20.9973 185.889 20.3893 186.23 19.792C186.593 19.1947 186.913 18.6933 187.19 18.288C187.254 18.1813 187.339 18.128 187.446 18.128C187.553 18.128 187.638 18.1813 187.702 18.288C187.787 18.3947 187.787 18.5227 187.702 18.672C187.702 18.672 187.595 18.832 187.382 19.152C187.169 19.4507 186.934 19.8453 186.678 20.336C186.358 20.912 186.07 21.5093 185.814 22.128C185.558 22.7467 185.43 23.28 185.43 23.728C185.43 24.304 185.601 24.7413 185.942 25.04C186.305 25.3387 186.753 25.488 187.286 25.488C187.969 25.488 188.641 25.3493 189.302 25.072C189.963 24.7947 190.561 24.4533 191.094 24.048C191.137 24.0053 191.201 23.984 191.286 23.984C191.499 23.984 191.606 24.0907 191.606 24.304C191.606 24.4107 191.563 24.496 191.478 24.56C190.881 25.008 190.23 25.3813 189.526 25.68C188.822 25.9787 188.075 26.128 187.286 26.128Z" fill="white"/>
</svg>
