<svg width="168" height="26" viewBox="0 0 168 26" fill="none" xmlns="http://www.w3.org/2000/svg">
<path d="M18.72 24.384C17.6107 24.384 16.8 24.096 16.288 23.52C15.776 22.9227 15.52 22.144 15.52 21.184C15.52 20.2027 16 17.5787 16.96 13.312C15.1467 13.3547 13.696 13.5253 12.608 13.824C11.9893 16.832 11.04 19.4347 9.76 21.632C9.09867 22.7413 8.29867 23.616 7.36 24.256C6.42133 24.9173 5.39733 25.248 4.288 25.248C3.17867 25.248 2.272 24.8747 1.568 24.128C0.864 23.4027 0.512 22.4427 0.512 21.248C0.512 19.5413 1.216 17.9413 2.624 16.448C4.032 14.9333 5.81333 13.7173 7.968 12.8C8.16 10.8373 8.256 9.23733 8.256 8C8.256 6.74133 8.128 5.856 7.872 5.344C7.63733 4.832 7.25333 4.576 6.72 4.576C6.18667 4.576 5.48267 4.77867 4.608 5.184C3.73333 5.568 2.912 6.09067 2.144 6.752L1.344 5.6C2.112 4.66133 3.24267 3.776 4.736 2.944C6.22933 2.09067 7.66933 1.664 9.056 1.664C11.8507 1.664 13.248 3.78667 13.248 8.032C13.248 9.03467 13.1627 10.24 12.992 11.648C14.3787 11.3707 15.8613 11.1893 17.44 11.104C18.1653 7.73333 18.528 5.06667 18.528 3.104C18.528 2.74133 18.5067 2.464 18.464 2.272C20.1707 1.61067 21.888 1.28 23.616 1.28C23.68 1.45067 23.712 1.74933 23.712 2.176C23.712 3.49867 23.1893 6.51733 22.144 11.232C24.704 11.424 26.4533 11.68 27.392 12C27.4133 12.0853 27.424 12.2453 27.424 12.48C27.424 12.928 27.2213 13.4933 26.816 14.176C25.4293 13.7493 23.7227 13.472 21.696 13.344C20.9493 16.928 20.576 19.2533 20.576 20.32C20.576 21.3653 20.832 21.888 21.344 21.888C21.6213 21.888 21.92 21.8347 22.24 21.728L22.72 22.976C21.184 23.9147 19.8507 24.384 18.72 24.384ZM3.968 22.176C4.65067 22.176 5.32267 21.5893 5.984 20.416C6.64533 19.2427 7.17867 17.4933 7.584 15.168C6.38933 15.68 5.30133 16.48 4.32 17.568C3.33867 18.656 2.848 19.7013 2.848 20.704C2.848 21.1733 2.95467 21.536 3.168 21.792C3.40267 22.048 3.66933 22.176 3.968 22.176ZM28.94 24.384C27.468 24.384 26.316 23.872 25.484 22.848C24.652 21.8027 24.236 20.352 24.236 18.496C24.236 16.128 24.8653 14.0907 26.124 12.384C27.404 10.6773 29.164 9.824 31.404 9.824L32.556 9.888C32.9187 9.696 33.324 9.6 33.772 9.6C35.4573 9.6 36.3 11.1893 36.3 14.368C37.1747 14.3253 38.06 14.208 38.956 14.016L39.468 13.888L39.66 15.136C38.956 15.4347 38.0067 15.7013 36.812 15.936L36.172 16.064C35.7667 18.304 34.9453 20.256 33.708 21.92C32.4707 23.5627 30.8813 24.384 28.94 24.384ZM30.668 21.632C31.564 21.632 32.364 21.056 33.068 19.904C33.7933 18.752 34.2947 17.536 34.572 16.256C32.2893 16.256 31.148 15.4027 31.148 13.696C31.148 13.0133 31.2867 12.3733 31.564 11.776L31.724 11.456C31.6387 11.4133 31.532 11.392 31.404 11.392C31.276 11.392 31.18 11.4133 31.116 11.456C30.5827 11.7973 30.0813 12.5973 29.612 13.856C29.1427 15.1147 28.908 16.5547 28.908 18.176C28.908 20.48 29.4947 21.632 30.668 21.632ZM47.5698 10.208C47.5271 10.7413 47.3458 11.36 47.0258 12.064C46.2151 11.9787 45.4471 11.936 44.7218 11.936H44.1458C43.1644 16.6933 42.6738 19.6587 42.6738 20.832C42.6738 21.4507 42.8018 21.76 43.0578 21.76C43.3351 21.76 44.0498 21.4933 45.2018 20.96L45.7778 22.016C43.8791 23.5947 42.1191 24.384 40.4978 24.384C39.7511 24.384 39.1324 24.1493 38.6418 23.68C38.1724 23.2107 37.9378 22.592 37.9378 21.824C37.9378 21.0347 38.0231 20.1493 38.1938 19.168C38.3858 18.1867 38.6418 16.992 38.9618 15.584C39.2818 14.1547 39.5164 13.0027 39.6658 12.128C38.8764 12.192 38.2898 12.256 37.9058 12.32C37.8631 12.064 37.8418 11.7227 37.8418 11.296C37.8418 10.848 37.8738 10.4853 37.9378 10.208H39.9538C40.1244 9.056 40.2098 7.968 40.2098 6.944L40.1778 5.952V5.856C41.8418 5.28 43.4098 4.992 44.8818 4.992C44.9671 5.41867 45.0098 5.952 45.0098 6.592C45.0098 7.232 44.8284 8.43733 44.4658 10.208H47.5698ZM46.8633 18.464C46.8633 15.7973 47.6633 13.696 49.2633 12.16C50.8846 10.6027 52.7193 9.824 54.7673 9.824C56.0259 9.824 57.0606 10.1333 57.8713 10.752C58.6819 11.3707 59.0873 12.2027 59.0873 13.248C59.0873 14.272 58.8206 15.136 58.2873 15.84C57.7753 16.544 57.1459 17.088 56.3993 17.472C54.8846 18.2187 53.4979 18.688 52.2393 18.88L51.4713 18.976C51.6206 20.9813 52.4419 21.984 53.9353 21.984C54.4473 21.984 54.9913 21.856 55.5673 21.6C56.1433 21.344 56.5913 21.088 56.9113 20.832L57.3913 20.448L58.1593 21.472C57.9886 21.7067 57.6473 22.016 57.1353 22.4C56.6233 22.784 56.1433 23.104 55.6953 23.36C54.4579 24.0427 53.1033 24.384 51.6313 24.384C50.1593 24.384 48.9966 23.8613 48.1432 22.816C47.2899 21.7707 46.8633 20.32 46.8633 18.464ZM51.4393 17.408C52.5273 17.216 53.3913 16.7573 54.0312 16.032C54.6713 15.3067 54.9913 14.368 54.9913 13.216C54.9913 12.064 54.6499 11.488 53.9673 11.488C53.1566 11.488 52.5273 12.1813 52.0793 13.568C51.6526 14.9333 51.4393 16.2133 51.4393 17.408ZM62.2365 24.384C61.5112 24.384 60.9032 24.1387 60.4125 23.648C59.9432 23.1573 59.7085 22.4747 59.7085 21.6C59.7085 20.704 60.2312 17.8773 61.2765 13.12C62.3432 8.34133 62.8765 4.896 62.8765 2.784L62.6845 1.376C64.3485 0.799999 65.9058 0.511999 67.3565 0.511999C67.5698 0.810666 67.6765 1.33333 67.6765 2.08C67.6765 3.78667 67.1325 7.09333 66.0445 12C64.9778 16.8853 64.4445 19.7333 64.4445 20.544C64.4445 21.3333 64.5405 21.728 64.7325 21.728L66.9725 20.928L67.5485 22.048C66.8232 22.624 65.9378 23.1573 64.8925 23.648C63.8685 24.1387 62.9832 24.384 62.2365 24.384ZM92.4388 24.384C91.3294 24.384 90.5188 24.096 90.0068 23.52C89.4948 22.9227 89.2388 22.144 89.2388 21.184C89.2388 20.2027 89.7188 17.5787 90.6788 13.312C88.8654 13.3547 87.4148 13.5253 86.3268 13.824C85.7081 16.832 84.7588 19.4347 83.4788 21.632C82.8174 22.7413 82.0174 23.616 81.0788 24.256C80.1401 24.9173 79.1161 25.248 78.0068 25.248C76.8974 25.248 75.9908 24.8747 75.2868 24.128C74.5828 23.4027 74.2308 22.4427 74.2308 21.248C74.2308 19.5413 74.9348 17.9413 76.3428 16.448C77.7508 14.9333 79.5321 13.7173 81.6868 12.8C81.8788 10.8373 81.9748 9.23733 81.9748 8C81.9748 6.74133 81.8468 5.856 81.5908 5.344C81.3561 4.832 80.9721 4.576 80.4388 4.576C79.9054 4.576 79.2014 4.77867 78.3268 5.184C77.4521 5.568 76.6308 6.09067 75.8628 6.752L75.0628 5.6C75.8308 4.66133 76.9614 3.776 78.4548 2.944C79.9481 2.09067 81.3881 1.664 82.7748 1.664C85.5694 1.664 86.9668 3.78667 86.9668 8.032C86.9668 9.03467 86.8814 10.24 86.7108 11.648C88.0974 11.3707 89.5801 11.1893 91.1588 11.104C91.8841 7.73333 92.2468 5.06667 92.2468 3.104C92.2468 2.74133 92.2254 2.464 92.1828 2.272C93.8894 1.61067 95.6068 1.28 97.3348 1.28C97.3988 1.45067 97.4308 1.74933 97.4308 2.176C97.4308 3.49867 96.9081 6.51733 95.8628 11.232C98.4228 11.424 100.172 11.68 101.111 12C101.132 12.0853 101.143 12.2453 101.143 12.48C101.143 12.928 100.94 13.4933 100.535 14.176C99.1481 13.7493 97.4414 13.472 95.4148 13.344C94.6681 16.928 94.2948 19.2533 94.2948 20.32C94.2948 21.3653 94.5508 21.888 95.0628 21.888C95.3401 21.888 95.6388 21.8347 95.9588 21.728L96.4388 22.976C94.9028 23.9147 93.5694 24.384 92.4388 24.384ZM77.6868 22.176C78.3694 22.176 79.0414 21.5893 79.7028 20.416C80.3641 19.2427 80.8974 17.4933 81.3028 15.168C80.1081 15.68 79.0201 16.48 78.0388 17.568C77.0574 18.656 76.5668 19.7013 76.5668 20.704C76.5668 21.1733 76.6734 21.536 76.8868 21.792C77.1214 22.048 77.3881 22.176 77.6868 22.176ZM98.832 18.464C98.832 15.7973 99.632 13.696 101.232 12.16C102.853 10.6027 104.688 9.824 106.736 9.824C107.995 9.824 109.029 10.1333 109.84 10.752C110.651 11.3707 111.056 12.2027 111.056 13.248C111.056 14.272 110.789 15.136 110.256 15.84C109.744 16.544 109.115 17.088 108.368 17.472C106.853 18.2187 105.467 18.688 104.208 18.88L103.44 18.976C103.589 20.9813 104.411 21.984 105.904 21.984C106.416 21.984 106.96 21.856 107.536 21.6C108.112 21.344 108.56 21.088 108.88 20.832L109.36 20.448L110.128 21.472C109.957 21.7067 109.616 22.016 109.104 22.4C108.592 22.784 108.112 23.104 107.664 23.36C106.427 24.0427 105.072 24.384 103.6 24.384C102.128 24.384 100.965 23.8613 100.112 22.816C99.2587 21.7707 98.832 20.32 98.832 18.464ZM103.408 17.408C104.496 17.216 105.36 16.7573 106 16.032C106.64 15.3067 106.96 14.368 106.96 13.216C106.96 12.064 106.619 11.488 105.936 11.488C105.125 11.488 104.496 12.1813 104.048 13.568C103.621 14.9333 103.408 16.2133 103.408 17.408ZM121.277 10.752C121.32 10.7093 121.437 10.432 121.629 9.92C122.632 9.92 123.976 10.2187 125.661 10.816C125.128 12.5867 124.701 14.4427 124.381 16.384C124.061 18.304 123.901 19.68 123.901 20.512C123.901 21.3227 123.987 21.728 124.157 21.728C124.285 21.728 124.755 21.5253 125.565 21.12L125.949 20.928L126.525 22.048C126.333 22.2187 126.077 22.432 125.757 22.688C125.459 22.944 124.883 23.296 124.029 23.744C123.176 24.1707 122.408 24.384 121.725 24.384C120.403 24.384 119.635 23.7867 119.421 22.592C118.056 23.7867 116.819 24.384 115.709 24.384C114.621 24.384 113.693 23.9573 112.925 23.104C112.179 22.2507 111.805 20.9067 111.805 19.072C111.805 16.2133 112.392 13.9627 113.565 12.32C114.739 10.656 116.157 9.824 117.821 9.824C119.016 9.824 120.168 10.1333 121.277 10.752ZM117.629 21.664C118.141 21.664 118.717 21.4613 119.357 21.056C119.507 18.048 120.008 15.072 120.861 12.128C120.221 11.8507 119.677 11.712 119.229 11.712C118.461 11.712 117.8 12.4693 117.245 13.984C116.712 15.4773 116.445 17.1307 116.445 18.944C116.445 20.7573 116.84 21.664 117.629 21.664ZM130.22 9.824C131.159 9.824 131.852 10.016 132.3 10.4C132.77 10.784 133.004 11.5733 133.004 12.768C133.004 13.408 132.812 14.72 132.428 16.704C132.044 18.6667 131.852 19.8613 131.852 20.288C131.852 21.1413 132.023 21.568 132.364 21.568C133.175 21.568 134.06 20.9707 135.02 19.776C136.002 18.56 136.514 17.5467 136.556 16.736L134.38 14.304C134.466 13.3867 134.69 12.5547 135.052 11.808C135.415 11.0613 135.756 10.5387 136.076 10.24L136.524 9.824C137.442 9.824 138.135 10.0693 138.604 10.56C139.074 11.0507 139.308 11.6267 139.308 12.288C139.308 13.9733 138.892 15.7547 138.06 17.632C137.228 19.5093 136.119 21.1093 134.732 22.432C133.346 23.7333 131.938 24.384 130.508 24.384C129.612 24.384 128.919 24.1067 128.428 23.552C127.959 22.9973 127.724 22.272 127.724 21.376C127.724 20.4587 127.788 19.232 127.916 17.696C128.066 16.16 128.14 14.6347 128.14 13.12C128.14 12.7787 128.012 12.3733 127.756 11.904C127.522 11.4347 127.276 11.0613 127.02 10.784L127.116 10.4C128.268 10.016 129.303 9.824 130.22 9.824ZM139.582 18.464C139.582 15.7973 140.382 13.696 141.982 12.16C143.603 10.6027 145.438 9.824 147.486 9.824C148.745 9.824 149.779 10.1333 150.59 10.752C151.401 11.3707 151.806 12.2027 151.806 13.248C151.806 14.272 151.539 15.136 151.006 15.84C150.494 16.544 149.865 17.088 149.118 17.472C147.603 18.2187 146.217 18.688 144.958 18.88L144.19 18.976C144.339 20.9813 145.161 21.984 146.654 21.984C147.166 21.984 147.71 21.856 148.286 21.6C148.862 21.344 149.31 21.088 149.63 20.832L150.11 20.448L150.878 21.472C150.707 21.7067 150.366 22.016 149.854 22.4C149.342 22.784 148.862 23.104 148.414 23.36C147.177 24.0427 145.822 24.384 144.35 24.384C142.878 24.384 141.715 23.8613 140.862 22.816C140.009 21.7707 139.582 20.32 139.582 18.464ZM144.158 17.408C145.246 17.216 146.11 16.7573 146.75 16.032C147.39 15.3067 147.71 14.368 147.71 13.216C147.71 12.064 147.369 11.488 146.686 11.488C145.875 11.488 145.246 12.1813 144.798 13.568C144.371 14.9333 144.158 16.2133 144.158 17.408ZM153.355 24.096H152.747C152.747 23.0933 153.046 21.1733 153.643 18.336C154.262 15.4987 154.571 13.888 154.571 13.504C154.571 12.8 154.273 12.0533 153.675 11.264L153.387 10.88L153.419 10.464C154.571 10.144 156.417 9.984 158.955 9.984C159.233 10.3467 159.382 11.008 159.403 11.968C161.259 10.5387 162.827 9.824 164.107 9.824C164.875 9.824 165.483 10.0907 165.931 10.624C166.401 11.1573 166.635 11.8293 166.635 12.64C166.635 13.4293 166.39 14.8053 165.899 16.768C165.409 18.7307 165.163 20.0533 165.163 20.736C165.163 21.3973 165.249 21.728 165.419 21.728C165.547 21.728 165.995 21.5253 166.763 21.12L167.147 20.928L167.723 22.048C167.531 22.2187 167.275 22.432 166.955 22.688C166.635 22.944 166.038 23.296 165.163 23.744C164.31 24.1707 163.542 24.384 162.859 24.384C161.302 24.384 160.523 23.4987 160.523 21.728C160.523 20.9813 160.758 19.6053 161.227 17.6C161.718 15.5947 161.963 14.304 161.963 13.728C161.963 13.152 161.782 12.864 161.419 12.864C160.801 12.864 160.043 13.1307 159.147 13.664C159.083 14.0267 158.87 14.9867 158.507 16.544C157.761 19.8933 157.387 22.2613 157.387 23.648C156.641 23.9467 155.297 24.096 153.355 24.096Z" fill="white"/>
</svg>
