<!DOCTYPE svg PUBLIC "-//W3C//DTD SVG 1.1//EN" "http://www.w3.org/Graphics/SVG/1.1/DTD/svg11.dtd">
<!-- Uploaded to: SVG Repo, www.svgrepo.com, Transformed by: SVG Repo Mixer Tools -->
<svg fill="rgb(122, 89, 60" height="800px" width="800px" version="1.1" id="Capa_1" xmlns="http://www.w3.org/2000/svg" xmlns:xlink="http://www.w3.org/1999/xlink" viewBox="0 0 384.35 384.35" xml:space="preserve">
<g id="SVGRepo_bgCarrier" stroke-width="0"/>
<g id="SVGRepo_tracerCarrier" stroke-linecap="round" stroke-linejoin="round" stroke="#CCCCCC" stroke-width="6.1496319999999995"/>
<g id="SVGRepo_iconCarrier"> <path d="M235.451,291.673h-8.237l5.767-76.75c0.167-2.22-0.599-4.408-2.112-6.04s-3.64-2.56-5.865-2.56H159.35 c-2.226,0-4.351,0.928-5.865,2.56c-1.514,1.632-2.279,3.82-2.113,6.04l5.767,76.75h-8.237c-4.418,0-8,3.582-8,8s3.582,8,8,8h16.685 c0.058,0.001,0.117,0.002,0.176,0.002h52.827c0.059,0,0.117-0.001,0.176-0.002h16.686c4.418,0,8-3.582,8-8 S239.869,291.673,235.451,291.673z M211.169,291.673h-37.984l-2.65-35.277h26.096c4.418,0,8-3.582,8-8s-3.582-8-8-8h-27.298 l-1.358-18.072h48.405L211.169,291.673z M121.191,376.352c0,4.418-3.582,8-8,8H93.093c-4.418,0-8-3.582-8-8s3.582-8,8-8h20.098 C117.61,368.352,121.191,371.934,121.191,376.352z M299.259,376.352c0,4.418-3.582,8-8,8H271.16c-4.418,0-8-3.582-8-8s3.582-8,8-8 h20.099C295.677,368.352,299.259,371.934,299.259,376.352z M122.51,117.832c0-4.418,3.582-8,8-8h20.854c4.418,0,8,3.582,8,8 s-3.582,8-8,8H130.51C126.092,125.832,122.51,122.25,122.51,117.832z M122.51,147.669c0-4.418,3.582-8,8-8h20.854 c4.418,0,8,3.582,8,8s-3.582,8-8,8H130.51C126.092,155.669,122.51,152.087,122.51,147.669z M291.259,0H93.093c-4.418,0-8,3.582-8,8 v337.201c0,4.418,3.582,8,8,8h198.166c4.418,0,8-3.582,8-8V8C299.259,3.582,295.677,0,291.259,0z M283.259,337.201H101.093V16 h182.166V337.201z M122.51,58.158c0-4.418,3.582-8,8-8h20.854c4.418,0,8,3.582,8,8s-3.582,8-8,8H130.51 C126.092,66.158,122.51,62.576,122.51,58.158z M122.51,87.995c0-4.418,3.582-8,8-8h20.854c4.418,0,8,3.582,8,8s-3.582,8-8,8H130.51 C126.092,95.995,122.51,92.413,122.51,87.995z M221.977,166.171c21.981,0,39.865-17.882,39.865-39.862V97.072 c0-19.24-13.705-35.342-31.865-39.056v-10.36c0-4.418-3.582-8-8-8s-8,3.582-8,8v10.36c-18.158,3.715-31.86,19.815-31.86,39.056 v29.236C182.117,148.289,199.998,166.171,221.977,166.171z M198.117,97.072c0-10.353,6.627-19.187,15.86-22.482v50.858 c0,4.418,3.582,8,8,8s8-3.582,8-8V74.589c9.236,3.296,15.865,12.13,15.865,22.483v29.236c0,13.158-10.706,23.862-23.865,23.862 c-13.156,0-23.86-10.704-23.86-23.862V97.072z"/> </g>
</svg>